Rokkitt-Medium.ufo
<glyph name="exclam" format="1">
  <advance width="347"/>
  <unicode hex="0021"/>
  <outline>
    <contour>
      <point x="144" y="370" type="line"/>
      <point x="211" y="370" type="line"/>
      <point x="243" y="829" type="line"/>
      <point x="243" y="1193" type="line"/>
      <point x="109" y="1193" type="line"/>
      <point x="109" y="829" type="line"/>
    </contour>
    <contour>
      <point x="176" y="-13" type="curve" smooth="yes"/>
      <point x="232" y="-13"/>
      <point x="274" y="26"/>
      <point x="274" y="79" type="curve" smooth="yes"/>
      <point x="274" y="129"/>
      <point x="232" y="169"/>
      <point x="176" y="169" type="curve" smooth="yes"/>
      <point x="122" y="169"/>
      <point x="80" y="129"/>
      <point x="80" y="79" type="curve" smooth="yes"/>
      <point x="80" y="26"/>
      <point x="122" y="-13"/>
    </contour>
  </outline>
</glyph>
<glyph name="quotedbl" format="1">
  <advance width="808"/>
  <unicode hex="0022"/>
  <outline>
    <contour>
      <point x="181" y="757" type="line"/>
      <point x="303" y="757" type="line"/>
      <point x="347" y="1222" type="line"/>
      <point x="131" y="1222" type="line"/>
    </contour>
    <contour>
      <point x="510" y="757" type="line"/>
      <point x="631" y="757" type="line"/>
      <point x="676" y="1222" type="line"/>
      <point x="460" y="1222" type="line"/>
    </contour>
  </outline>
</glyph>
<glyph name="dollar" format="1">
  <advance width="1082"/>
  <unicode hex="0024"/>
  <outline>
    <contour>
      <point x="508" y="-183" type="line"/>
      <point x="576" y="-183" type="line"/>
      <point x="576" y="1349" type="line"/>
      <point x="508" y="1349" type="line"/>
    </contour>
    <component base="S" xOffset="-34"/>
  </outline>
</glyph>
<glyph name="percent" format="1">
  <advance width="1669"/>
  <unicode hex="0025"/>
  <outline>
    <contour>
      <point x="408" y="684" type="curve" smooth="yes"/>
      <point x="291" y="684"/>
      <point x="205" y="772"/>
      <point x="205" y="892" type="curve" smooth="yes"/>
      <point x="205" y="1011"/>
      <point x="291" y="1097"/>
      <point x="408" y="1098" type="curve" smooth="yes"/>
      <point x="527" y="1097"/>
      <point x="613" y="1011"/>
      <point x="613" y="892" type="curve" smooth="yes"/>
      <point x="613" y="772"/>
      <point x="527" y="684"/>
    </contour>
    <contour>
      <point x="408" y="604" type="curve" smooth="yes"/>
      <point x="581" y="604"/>
      <point x="707" y="726"/>
      <point x="707" y="892" type="curve" smooth="yes"/>
      <point x="707" y="1056"/>
      <point x="581" y="1176"/>
      <point x="408" y="1176" type="curve" smooth="yes"/>
      <point x="237" y="1176"/>
      <point x="111" y="1056"/>
      <point x="111" y="892" type="curve" smooth="yes"/>
      <point x="111" y="726"/>
      <point x="237" y="604"/>
    </contour>
    <contour>
      <point x="361" y="-53" type="line"/>
      <point x="1386" y="1182" type="line"/>
      <point x="1325" y="1233" type="line"/>
      <point x="295" y="5" type="line"/>
    </contour>
    <contour>
      <point x="1275" y="58" type="curve" smooth="yes"/>
      <point x="1158" y="58"/>
      <point x="1072" y="146"/>
      <point x="1072" y="266" type="curve" smooth="yes"/>
      <point x="1072" y="385"/>
      <point x="1158" y="471"/>
      <point x="1275" y="472" type="curve" smooth="yes"/>
      <point x="1393" y="471"/>
      <point x="1480" y="385"/>
      <point x="1480" y="266" type="curve" smooth="yes"/>
      <point x="1480" y="146"/>
      <point x="1393" y="58"/>
    </contour>
    <contour>
      <point x="1275" y="-22" type="curve" smooth="yes"/>
      <point x="1448" y="-22"/>
      <point x="1574" y="100"/>
      <point x="1574" y="266" type="curve" smooth="yes"/>
      <point x="1574" y="430"/>
      <point x="1448" y="550"/>
      <point x="1275" y="550" type="curve" smooth="yes"/>
      <point x="1103" y="550"/>
      <point x="978" y="430"/>
      <point x="978" y="266" type="curve" smooth="yes"/>
      <point x="978" y="100"/>
      <point x="1103" y="-22"/>
    </contour>
  </outline>
</glyph>
<glyph name="parenright" format="1">
  <advance width="595"/>
  <unicode hex="0029"/>
  <outline>
    <contour>
      <point x="126" y="-124" type="line"/>
      <point x="407" y="-9"/>
      <point x="547" y="257"/>
      <point x="547" y="523" type="curve" smooth="yes"/>
      <point x="547" y="790"/>
      <point x="406" y="1058"/>
      <point x="126" y="1173" type="curve"/>
      <point x="126" y="1045" type="line"/>
      <point x="244" y="975"/>
      <point x="304" y="750"/>
      <point x="304" y="526" type="curve" smooth="yes"/>
      <point x="304" y="301"/>
      <point x="244" y="77"/>
      <point x="126" y="7" type="curve"/>
    </contour>
  </outline>
</glyph>
<glyph name="asterisk" format="1">
  <advance width="935"/>
  <unicode hex="002A"/>
  <outline>
    <contour>
      <point x="270" y="411" type="line"/>
      <point x="468" y="751" type="line"/>
      <point x="665" y="411" type="line"/>
      <point x="768" y="487" type="line"/>
      <point x="505" y="778" type="line"/>
      <point x="885" y="872" type="line"/>
      <point x="847" y="992" type="line"/>
      <point x="489" y="820" type="line"/>
      <point x="532" y="1212" type="line"/>
      <point x="403" y="1212" type="line"/>
      <point x="447" y="820" type="line"/>
      <point x="89" y="992" type="line"/>
      <point x="50" y="872" type="line"/>
      <point x="430" y="778" type="line"/>
      <point x="166" y="487" type="line"/>
    </contour>
  </outline>
</glyph>
<glyph name="comma" format="1">
  <advance width="457"/>
  <unicode hex="002C"/>
  <outline>
    <contour>
      <point x="160" y="-221" type="line"/>
      <point x="306" y="-220"/>
      <point x="345" y="-134"/>
      <point x="345" y="9" type="curve"/>
      <point x="345" y="34"/>
      <point x="344" y="158"/>
      <point x="341" y="178" type="curve"/>
      <point x="309" y="178"/>
      <point x="193" y="178"/>
      <point x="166" y="175" type="curve"/>
      <point x="166" y="150"/>
      <point x="166" y="25"/>
      <point x="167" y="1" type="curve"/>
      <point x="260" y="1" type="line"/>
      <point x="260" y="-110"/>
      <point x="236" y="-143"/>
      <point x="160" y="-156" type="curve"/>
    </contour>
  </outline>
</glyph>
<glyph name="slash" format="1">
  <advance width="539"/>
  <unicode hex="002F"/>
  <outline>
    <contour>
      <point x="-8" y="-11" type="line"/>
      <point x="84" y="-31" type="line"/>
      <point x="541" y="1197" type="line"/>
      <point x="451" y="1217" type="line"/>
    </contour>
  </outline>
</glyph>
<glyph name="zero" format="1">
  <advance width="1096"/>
  <unicode hex="0030"/>
  <outline>
    <contour>
      <point x="547" y="72" type="curve" smooth="yes"/>
      <point x="357" y="71"/>
      <point x="255" y="243"/>
      <point x="255" y="564" type="curve" smooth="yes"/>
      <point x="255" y="899"/>
      <point x="357" y="1080"/>
      <point x="547" y="1080" type="curve" smooth="yes"/>
      <point x="738" y="1080"/>
      <point x="841" y="900"/>
      <point x="841" y="564" type="curve" smooth="yes"/>
      <point x="841" y="244"/>
      <point x="738" y="72"/>
    </contour>
    <contour>
      <point x="547" y="-22" type="curve" smooth="yes"/>
      <point x="827" y="-22"/>
      <point x="972" y="184"/>
      <point x="972" y="564" type="curve" smooth="yes"/>
      <point x="972" y="945"/>
      <point x="827" y="1174"/>
      <point x="547" y="1174" type="curve" smooth="yes"/>
      <point x="268" y="1174"/>
      <point x="124" y="944"/>
      <point x="124" y="564" type="curve" smooth="yes"/>
      <point x="124" y="184"/>
      <point x="268" y="-22"/>
    </contour>
  </outline>
</glyph>
<glyph name="one" format="1">
  <advance width="722"/>
  <unicode hex="0031"/>
  <outline>
    <contour>
      <point x="122" y="0" type="line"/>
      <point x="654" y="0" type="line"/>
      <point x="654" y="141" type="line"/>
      <point x="491" y="141" type="line"/>
      <point x="491" y="1152" type="line"/>
      <point x="110" y="1102" type="line"/>
      <point x="110" y="962" type="line"/>
      <point x="295" y="982" type="line"/>
      <point x="295" y="141" type="line"/>
      <point x="122" y="141" type="line"/>
    </contour>
  </outline>
</glyph>
<glyph name="two" format="1">
  <advance width="1033"/>
  <unicode hex="0032"/>
  <outline>
    <contour>
      <point x="136" y="0" type="line"/>
      <point x="920" y="0" type="line"/>
      <point x="918" y="371" type="line"/>
      <point x="754" y="371" type="line"/>
      <point x="753" y="157" type="line"/>
      <point x="373" y="157" type="line"/>
      <point x="600" y="384" type="line" smooth="yes"/>
      <point x="730" y="514"/>
      <point x="910" y="658"/>
      <point x="910" y="832" type="curve" smooth="yes"/>
      <point x="910" y="1038"/>
      <point x="773" y="1174"/>
      <point x="517" y="1174" type="curve" smooth="yes"/>
      <point x="278" y="1174"/>
      <point x="128" y="1036"/>
      <point x="128" y="832" type="curve" smooth="yes"/>
      <point x="128" y="783"/>
      <point x="137" y="732"/>
      <point x="154" y="680" type="curve"/>
      <point x="328" y="680" type="line"/>
      <point x="316" y="727"/>
      <point x="310" y="769"/>
      <point x="310" y="807" type="curve" smooth="yes"/>
      <point x="310" y="943"/>
      <point x="393" y="1009"/>
      <point x="519" y="1009" type="curve" smooth="yes"/>
      <point x="665" y="1009"/>
      <point x="705" y="921"/>
      <point x="710" y="830" type="curve" smooth="yes"/>
      <point x="715" y="733"/>
      <point x="585" y="621"/>
      <point x="476" y="509" type="curve" smooth="yes"/>
      <point x="136" y="158" type="line"/>
    </contour>
  </outline>
</glyph>
<glyph name="four" format="1">
  <advance width="969"/>
  <unicode hex="0034"/>
  <outline>
    <contour>
      <point x="406" y="0" type="line"/>
      <point x="816" y="0" type="line"/>
      <point x="816" y="94" type="line"/>
      <point x="676" y="94" type="line"/>
      <point x="676" y="350" type="line"/>
      <point x="872" y="350" type="line"/>
      <point x="872" y="443" type="line"/>
      <point x="676" y="443" type="line"/>
      <point x="676" y="1152" type="line"/>
      <point x="552" y="1152" type="line"/>
      <point x="69" y="458" type="line"/>
      <point x="84" y="350" type="line"/>
      <point x="555" y="350" type="line"/>
      <point x="555" y="94" type="line"/>
      <point x="406" y="94" type="line"/>
    </contour>
    <contour>
      <point x="190" y="443" type="line"/>
      <point x="555" y="997" type="line"/>
      <point x="555" y="443" type="line"/>
    </contour>
  </outline>
</glyph>
<glyph name="five" format="1">
  <advance width="1014"/>
  <unicode hex="0035"/>
  <outline>
    <contour>
      <point x="507" y="-22" type="curve" smooth="yes"/>
      <point x="779" y="-22"/>
      <point x="936" y="117"/>
      <point x="936" y="358" type="curve" smooth="yes"/>
      <point x="936" y="596"/>
      <point x="788" y="733"/>
      <point x="531" y="733" type="curve" smooth="yes"/>
      <point x="433" y="733"/>
      <point x="340" y="695"/>
      <point x="278" y="629" type="curve"/>
      <point x="286" y="1050" type="line"/>
      <point x="745" y="1050" type="line"/>
      <point x="745" y="871" type="line"/>
      <point x="867" y="871" type="line"/>
      <point x="867" y="1152" type="line"/>
      <point x="168" y="1152" type="line"/>
      <point x="157" y="551" type="line"/>
      <point x="263" y="508" type="line"/>
      <point x="333" y="584"/>
      <point x="443" y="620"/>
      <point x="522" y="620" type="curve" smooth="yes"/>
      <point x="700" y="620"/>
      <point x="800" y="523"/>
      <point x="800" y="353" type="curve" smooth="yes"/>
      <point x="800" y="183"/>
      <point x="694" y="86"/>
      <point x="508" y="86" type="curve" smooth="yes"/>
      <point x="371" y="86"/>
      <point x="262" y="149"/>
      <point x="185" y="254" type="curve"/>
      <point x="104" y="169" type="line"/>
      <point x="196" y="51"/>
      <point x="328" y="-22"/>
    </contour>
  </outline>
</glyph>
<glyph name="six" format="1">
  <advance width="990"/>
  <unicode hex="0036"/>
  <outline>
    <contour>
      <point x="508" y="-19" type="curve" smooth="yes"/>
      <point x="767" y="-19"/>
      <point x="917" y="151"/>
      <point x="917" y="397" type="curve" smooth="yes"/>
      <point x="917" y="614"/>
      <point x="748" y="761"/>
      <point x="568" y="761" type="curve" smooth="yes"/>
      <point x="424" y="761"/>
      <point x="356" y="677"/>
      <point x="355" y="678" type="curve"/>
      <point x="703" y="1152" type="line"/>
      <point x="546" y="1262" type="line"/>
      <point x="189" y="750" type="line" smooth="yes"/>
      <point x="82" y="596"/>
      <point x="74" y="486"/>
      <point x="74" y="370" type="curve" smooth="yes"/>
      <point x="74" y="137"/>
      <point x="259" y="-19"/>
    </contour>
    <contour>
      <point x="514" y="133" type="curve" smooth="yes"/>
      <point x="352" y="133"/>
      <point x="284" y="246"/>
      <point x="284" y="377" type="curve" smooth="yes"/>
      <point x="284" y="528"/>
      <point x="393" y="612"/>
      <point x="525" y="612" type="curve" smooth="yes"/>
      <point x="658" y="612"/>
      <point x="732" y="518"/>
      <point x="732" y="381" type="curve" smooth="yes"/>
      <point x="732" y="238"/>
      <point x="649" y="133"/>
    </contour>
  </outline>
</glyph>
<glyph name="seven" format="1">
  <advance width="982"/>
  <unicode hex="0037"/>
  <outline>
    <contour>
      <point x="359" y="0" type="curve"/>
      <point x="500" y="0" type="line"/>
      <point x="500" y="0"/>
      <point x="663" y="591"/>
      <point x="894" y="1062" type="curve"/>
      <point x="894" y="1152" type="line"/>
      <point x="122" y="1152" type="line"/>
      <point x="122" y="835" type="line"/>
      <point x="246" y="835" type="line"/>
      <point x="246" y="1054" type="line"/>
      <point x="744" y="1054" type="line"/>
      <point x="499" y="515"/>
      <point x="359" y="0"/>
    </contour>
  </outline>
</glyph>
<glyph name="eight" format="1">
  <advance width="1109"/>
  <unicode hex="0038"/>
  <outline>
    <contour>
      <point x="556" y="-22" type="curve" smooth="yes"/>
      <point x="834" y="-22"/>
      <point x="988" y="126"/>
      <point x="988" y="315" type="curve" smooth="yes"/>
      <point x="988" y="449"/>
      <point x="918" y="551"/>
      <point x="769" y="600" type="curve"/>
      <point x="902" y="664"/>
      <point x="952" y="752"/>
      <point x="952" y="867" type="curve" smooth="yes"/>
      <point x="952" y="1050"/>
      <point x="798" y="1174"/>
      <point x="554" y="1174" type="curve" smooth="yes"/>
      <point x="310" y="1174"/>
      <point x="156" y="1048"/>
      <point x="156" y="865" type="curve" smooth="yes"/>
      <point x="156" y="751"/>
      <point x="209" y="661"/>
      <point x="340" y="598" type="curve"/>
      <point x="190" y="548"/>
      <point x="121" y="448"/>
      <point x="121" y="315" type="curve" smooth="yes"/>
      <point x="121" y="130"/>
      <point x="265" y="-22"/>
    </contour>
    <contour>
      <point x="556" y="128" type="curve" smooth="yes"/>
      <point x="420" y="128"/>
      <point x="337" y="207"/>
      <point x="337" y="324" type="curve" smooth="yes"/>
      <point x="337" y="439"/>
      <point x="439" y="529"/>
      <point x="454" y="540" type="curve"/>
      <point x="639" y="496"/>
      <point x="772" y="465"/>
      <point x="772" y="322" type="curve" smooth="yes"/>
      <point x="772" y="206"/>
      <point x="688" y="128"/>
    </contour>
    <contour>
      <point x="636" y="648" type="curve"/>
      <point x="486" y="677"/>
      <point x="361" y="723"/>
      <point x="361" y="848" type="curve" smooth="yes"/>
      <point x="361" y="957"/>
      <point x="430" y="1025"/>
      <point x="554" y="1025" type="curve" smooth="yes"/>
      <point x="683" y="1025"/>
      <point x="749" y="952"/>
      <point x="749" y="848" type="curve" smooth="yes"/>
      <point x="749" y="746"/>
      <point x="649" y="658"/>
    </contour>
  </outline>
</glyph>
<glyph name="nine" format="1">
  <advance width="918"/>
  <unicode hex="0039"/>
  <outline>
    <contour>
      <point x="395" y="-93" type="line"/>
      <point x="755" y="471" type="line" smooth="yes"/>
      <point x="828" y="579"/>
      <point x="857" y="686"/>
      <point x="857" y="811" type="curve" smooth="yes"/>
      <point x="857" y="1027"/>
      <point x="689" y="1174"/>
      <point x="460" y="1174" type="curve" smooth="yes"/>
      <point x="217" y="1174"/>
      <point x="71" y="1021"/>
      <point x="71" y="791" type="curve" smooth="yes"/>
      <point x="71" y="576"/>
      <point x="231" y="438"/>
      <point x="428" y="438" type="curve" smooth="yes"/>
      <point x="537" y="438"/>
      <point x="621" y="494"/>
      <point x="649" y="522" type="curve"/>
      <point x="289" y="-23" type="line"/>
    </contour>
    <contour>
      <point x="448" y="533" type="curve" smooth="yes"/>
      <point x="288" y="533"/>
      <point x="193" y="639"/>
      <point x="193" y="800" type="curve" smooth="yes"/>
      <point x="193" y="963"/>
      <point x="294" y="1075"/>
      <point x="457" y="1075" type="curve" smooth="yes"/>
      <point x="627" y="1075"/>
      <point x="721" y="957"/>
      <point x="721" y="807" type="curve" smooth="yes"/>
      <point x="721" y="632"/>
      <point x="590" y="533"/>
    </contour>
  </outline>
</glyph>
<glyph name="colon" format="1">
  <advance width="513"/>
  <unicode hex="003A"/>
  <outline>
    <contour>
      <point x="172" y="164" type="line"/>
      <point x="346" y="164" type="line"/>
      <point x="346" y="337" type="line"/>
      <point x="172" y="337" type="line"/>
    </contour>
    <contour>
      <point x="172" y="669" type="line"/>
      <point x="346" y="669" type="line"/>
      <point x="346" y="843" type="line"/>
      <point x="172" y="843" type="line"/>
    </contour>
  </outline>
</glyph>
<glyph name="semicolon" format="1">
  <advance width="420"/>
  <unicode hex="003B"/>
  <outline>
    <contour>
      <point x="110" y="-55" type="line"/>
      <point x="258" y="-53"/>
      <point x="298" y="33"/>
      <point x="298" y="165" type="curve"/>
      <point x="298" y="340" type="line"/>
      <point x="118" y="339" type="line"/>
      <point x="118" y="165" type="line"/>
      <point x="207" y="165" type="line"/>
      <point x="207" y="70"/>
      <point x="195" y="30"/>
      <point x="110" y="16" type="curve"/>
    </contour>
    <contour>
      <point x="120" y="669" type="line"/>
      <point x="295" y="669" type="line"/>
      <point x="295" y="843" type="line"/>
      <point x="120" y="843" type="line"/>
    </contour>
  </outline>
</glyph>
<glyph name="less" format="1">
  <advance width="1077"/>
  <unicode hex="003C"/>
  <outline>
    <contour>
      <point x="926" y="105" type="line"/>
      <point x="926" y="269" type="line"/>
      <point x="200" y="599" type="line"/>
      <point x="926" y="928" type="line"/>
      <point x="926" y="1091" type="line"/>
      <point x="9" y="666" type="line"/>
      <point x="9" y="530" type="line"/>
    </contour>
  </outline>
</glyph>
<glyph name="equal" format="1">
  <advance width="992"/>
  <unicode hex="003D"/>
  <outline>
    <contour>
      <point x="165" y="276" type="line"/>
      <point x="829" y="276" type="line"/>
      <point x="829" y="377" type="line"/>
      <point x="165" y="377" type="line"/>
    </contour>
    <contour>
      <point x="165" y="599" type="line"/>
      <point x="829" y="599" type="line"/>
      <point x="829" y="700" type="line"/>
      <point x="165" y="700" type="line"/>
    </contour>
  </outline>
</glyph>
<glyph name="greater" format="1">
  <advance width="998"/>
  <unicode hex="003E"/>
  <outline>
    <contour>
      <point x="148" y="5" type="line"/>
      <point x="1015" y="541" type="line"/>
      <point x="1015" y="626" type="line"/>
      <point x="148" y="1166" type="line"/>
      <point x="148" y="1041" type="line"/>
      <point x="885" y="584" type="line"/>
      <point x="148" y="129" type="line"/>
    </contour>
  </outline>
</glyph>
<glyph name="at" format="1">
  <advance width="1436"/>
  <unicode hex="0040"/>
  <outline>
    <contour>
      <point x="780" y="-48" type="curve" smooth="yes"/>
      <point x="956" y="-48"/>
      <point x="1086" y="-4"/>
      <point x="1192" y="76" type="curve"/>
      <point x="1145" y="135" type="line"/>
      <point x="1049" y="64"/>
      <point x="928" y="29"/>
      <point x="780" y="29" type="curve" smooth="yes"/>
      <point x="416" y="29"/>
      <point x="208" y="237"/>
      <point x="208" y="550" type="curve" smooth="yes"/>
      <point x="208" y="880"/>
      <point x="444" y="1121"/>
      <point x="765" y="1121" type="curve" smooth="yes"/>
      <point x="1084" y="1121"/>
      <point x="1245" y="912"/>
      <point x="1245" y="690" type="curve" smooth="yes"/>
      <point x="1245" y="444"/>
      <point x="1084" y="269"/>
      <point x="994" y="299" type="curve" smooth="yes"/>
      <point x="957" y="306"/>
      <point x="948" y="355"/>
      <point x="973" y="473" type="curve" smooth="yes"/>
      <point x="1069" y="915" type="line"/>
      <point x="980" y="915" type="line"/>
      <point x="947" y="749" type="line"/>
      <point x="942" y="854"/>
      <point x="858" y="933"/>
      <point x="742" y="933" type="curve" smooth="yes"/>
      <point x="516" y="933"/>
      <point x="398" y="720"/>
      <point x="398" y="526" type="curve" smooth="yes"/>
      <point x="398" y="333"/>
      <point x="522" y="231"/>
      <point x="656" y="231" type="curve" smooth="yes"/>
      <point x="779" y="231"/>
      <point x="857" y="314"/>
      <point x="897" y="417" type="curve"/>
      <point x="870" y="292"/>
      <point x="913" y="246"/>
      <point x="974" y="235" type="curve" smooth="yes"/>
      <point x="1139" y="205"/>
      <point x="1321" y="437"/>
      <point x="1321" y="691" type="curve" smooth="yes"/>
      <point x="1321" y="943"/>
      <point x="1165" y="1199"/>
      <point x="770" y="1199" type="curve" smooth="yes"/>
      <point x="347" y="1199"/>
      <point x="111" y="871"/>
      <point x="111" y="552" type="curve" smooth="yes"/>
      <point x="111" y="247"/>
      <point x="324" y="-48"/>
    </contour>
    <contour>
      <point x="671" y="306" type="curve" smooth="yes"/>
      <point x="552" y="306"/>
      <point x="494" y="400"/>
      <point x="494" y="525" type="curve" smooth="yes"/>
      <point x="494" y="689"/>
      <point x="583" y="852"/>
      <point x="733" y="852" type="curve" smooth="yes"/>
      <point x="842" y="852"/>
      <point x="911" y="785"/>
      <point x="911" y="660" type="curve" smooth="yes"/>
      <point x="911" y="465"/>
      <point x="810" y="306"/>
    </contour>
  </outline>
</glyph>
<glyph name="A" format="1">
  <advance width="1381"/>
  <unicode hex="0041"/>
  <outline>
    <contour>
      <point x="692" y="1152" type="move" name="top"/>
    </contour>
    <contour>
      <point x="521" y="567" type="line"/>
      <point x="671" y="1012" type="line"/>
      <point x="688" y="1012" type="line"/>
      <point x="835" y="567" type="line"/>
    </contour>
    <contour>
      <point x="44" y="0" type="line"/>
      <point x="544" y="0" type="line"/>
      <point x="544" y="141" type="line"/>
      <point x="385" y="141" type="line"/>
      <point x="479" y="426" type="line"/>
      <point x="876" y="426" type="line"/>
      <point x="973" y="141" type="line"/>
      <point x="817" y="141" type="line"/>
      <point x="817" y="0" type="line"/>
      <point x="1337" y="0" type="line"/>
      <point x="1337" y="141" type="line"/>
      <point x="1204" y="141" type="line"/>
      <point x="886" y="1012" type="line"/>
      <point x="1010" y="1012" type="line"/>
      <point x="1010" y="1152" type="line"/>
      <point x="369" y="1152" type="line"/>
      <point x="369" y="1012" type="line"/>
      <point x="491" y="1012" type="line"/>
      <point x="185" y="141" type="line"/>
      <point x="44" y="141" type="line"/>
    </contour>
  </outline>
</glyph>
<glyph name="B" format="1">
  <advance width="1213"/>
  <unicode hex="0042"/>
  <outline>
    <contour>
      <point x="537" y="1152" type="move" name="top"/>
    </contour>
    <contour>
      <point x="326" y="0" type="line"/>
      <point x="736" y="0" type="line" smooth="yes"/>
      <point x="1015" y="0"/>
      <point x="1124" y="154"/>
      <point x="1124" y="324" type="curve" smooth="yes"/>
      <point x="1124" y="460"/>
      <point x="1051" y="576"/>
      <point x="887" y="613" type="curve"/>
      <point x="993" y="645"/>
      <point x="1061" y="738"/>
      <point x="1061" y="867" type="curve" smooth="yes"/>
      <point x="1061" y="1055"/>
      <point x="928" y="1152"/>
      <point x="681" y="1152" type="curve" smooth="yes"/>
      <point x="327" y="1152" type="line"/>
      <point x="327" y="1059" type="line"/>
      <point x="643" y="1059" type="line" smooth="yes"/>
      <point x="834" y="1059"/>
      <point x="921" y="1004"/>
      <point x="921" y="862" type="curve" smooth="yes"/>
      <point x="921" y="736"/>
      <point x="853" y="654"/>
      <point x="686" y="654" type="curve" smooth="yes"/>
      <point x="332" y="654" type="line"/>
      <point x="332" y="557" type="line"/>
      <point x="701" y="557" type="line" smooth="yes"/>
      <point x="893" y="557"/>
      <point x="980" y="461"/>
      <point x="980" y="329" type="curve" smooth="yes"/>
      <point x="980" y="183"/>
      <point x="896" y="94"/>
      <point x="712" y="94" type="curve" smooth="yes"/>
      <point x="326" y="94" type="line"/>
    </contour>
    <component base="uc_main_stem" xOffset="-32"/>
  </outline>
</glyph>
<glyph name="C" format="1">
  <advance width="1372"/>
  <unicode hex="0043"/>
  <outline>
    <contour>
      <point x="716" y="1152" type="move" name="top"/>
    </contour>
    <contour>
      <point x="696" y="0" type="move" name="bot"/>
    </contour>
    <contour>
      <point x="706" y="-22" type="curve" smooth="yes"/>
      <point x="939" y="-21"/>
      <point x="1141" y="59"/>
      <point x="1244" y="298" type="curve"/>
      <point x="1142" y="351" type="line"/>
      <point x="1061" y="154"/>
      <point x="889" y="83"/>
      <point x="714" y="83" type="curve" smooth="yes"/>
      <point x="458" y="83"/>
      <point x="247" y="269"/>
      <point x="247" y="579" type="curve" smooth="yes"/>
      <point x="247" y="849"/>
      <point x="425" y="1068"/>
      <point x="715" y="1068" type="curve" smooth="yes"/>
      <point x="912" y="1068"/>
      <point x="1040" y="988"/>
      <point x="1129" y="804" type="curve"/>
      <point x="1226" y="811" type="line"/>
      <point x="1226" y="1154" type="line"/>
      <point x="1118" y="1154" type="line"/>
      <point x="1118" y="977" type="line"/>
      <point x="1030" y="1097"/>
      <point x="906" y="1173"/>
      <point x="707" y="1173" type="curve" smooth="yes"/>
      <point x="342" y="1173"/>
      <point x="104" y="919"/>
      <point x="104" y="579" type="curve" smooth="yes"/>
      <point x="104" y="209"/>
      <point x="366" y="-21"/>
    </contour>
  </outline>
</glyph>
<glyph name="D" format="1">
  <advance width="1408"/>
  <unicode hex="0044"/>
  <outline>
    <contour>
      <point x="611" y="1152" type="move" name="top"/>
    </contour>
    <contour>
      <point x="321" y="601" type="move" name="mid"/>
    </contour>
    <contour>
      <point x="177" y="0" type="line"/>
      <point x="735" y="0" type="line" smooth="yes"/>
      <point x="1112" y="0"/>
      <point x="1301" y="262"/>
      <point x="1301" y="584" type="curve" smooth="yes"/>
      <point x="1301" y="860"/>
      <point x="1120" y="1152"/>
      <point x="732" y="1152" type="curve" smooth="yes"/>
      <point x="177" y="1152" type="line"/>
      <point x="177" y="1059" type="line"/>
      <point x="727" y="1059" type="line" smooth="yes"/>
      <point x="1022" y="1059"/>
      <point x="1156" y="818"/>
      <point x="1156" y="581" type="curve" smooth="yes"/>
      <point x="1156" y="319"/>
      <point x="1024" y="94"/>
      <point x="720" y="94" type="curve" smooth="yes"/>
      <point x="177" y="94" type="line"/>
    </contour>
    <component base="uc_main_stem" xOffset="-30"/>
  </outline>
</glyph>
<glyph name="F" format="1">
  <advance width="1124"/>
  <unicode hex="0046"/>
  <outline>
    <contour>
      <point x="620" y="1152" type="move" name="top"/>
    </contour>
    <contour>
      <point x="775" y="403" type="line"/>
      <point x="850" y="403" type="line"/>
      <point x="850" y="781" type="line"/>
      <point x="775" y="781" type="line"/>
      <point x="775" y="647" type="line"/>
      <point x="330" y="647" type="line"/>
      <point x="330" y="548" type="line"/>
      <point x="775" y="548" type="line"/>
    </contour>
    <contour>
      <point x="957" y="801" type="line"/>
      <point x="1067" y="801" type="line"/>
      <point x="1067" y="1152" type="line"/>
      <point x="314" y="1152" type="line"/>
      <point x="314" y="1059" type="line"/>
      <point x="957" y="1059" type="line"/>
    </contour>
    <component base="uc_main_stem" xOffset="-32"/>
  </outline>
</glyph>
<glyph name="H" format="1">
  <advance width="1444"/>
  <unicode hex="0048"/>
  <outline>
    <contour>
      <point x="726" y="1152" type="move" name="top"/>
    </contour>
    <contour>
      <point x="718" y="0" type="move" name="bot"/>
    </contour>
    <contour>
      <point x="332" y="540" type="line"/>
      <point x="1121" y="540" type="line"/>
      <point x="1121" y="641" type="line"/>
      <point x="332" y="641" type="line"/>
    </contour>
    <component base="uc_main_stem" xOffset="763"/>
    <component base="uc_main_stem" xOffset="-32"/>
  </outline>
</glyph>
<glyph name="L" format="1">
  <advance width="1071"/>
  <unicode hex="004C"/>
  <outline>
    <contour>
      <point x="637" y="804" type="move" name="caron.alt"/>
    </contour>
    <contour>
      <point x="396" y="94" type="line"/>
      <point x="396" y="1059" type="line"/>
      <point x="559" y="1059" type="line"/>
      <point x="559" y="1152" type="line"/>
      <point x="90" y="1152" type="line"/>
      <point x="90" y="1059" type="line"/>
      <point x="254" y="1059" type="line"/>
      <point x="254" y="93" type="line"/>
      <point x="90" y="93" type="line"/>
      <point x="90" y="0" type="line"/>
      <point x="1018" y="0" type="line"/>
      <point x="1018" y="441" type="line"/>
      <point x="902" y="441" type="line"/>
      <point x="902" y="94" type="line"/>
    </contour>
  </outline>
</glyph>
<glyph name="M" format="1">
  <advance width="1671"/>
  <unicode hex="004D"/>
  <outline>
    <contour>
      <point x="830" y="1152" type="move" name="top"/>
    </contour>
    <contour>
      <point x="97" y="0" type="line"/>
      <point x="511" y="0" type="line"/>
      <point x="511" y="94" type="line"/>
      <point x="360" y="94" type="line"/>
      <point x="360" y="1024" type="line"/>
      <point x="807" y="69" type="line"/>
      <point x="851" y="69" type="line"/>
      <point x="1288" y="1024" type="line"/>
      <point x="1288" y="94" type="line"/>
      <point x="1136" y="94" type="line"/>
      <point x="1136" y="0" type="line"/>
      <point x="1580" y="0" type="line"/>
      <point x="1580" y="94" type="line"/>
      <point x="1424" y="94" type="line"/>
      <point x="1424" y="1059" type="line"/>
      <point x="1579" y="1059" type="line"/>
      <point x="1579" y="1152" type="line"/>
      <point x="1222" y="1152" type="line"/>
      <point x="844" y="314" type="line"/>
      <point x="448" y="1152" type="line"/>
      <point x="97" y="1152" type="line"/>
      <point x="97" y="1059" type="line"/>
      <point x="252" y="1059" type="line"/>
      <point x="252" y="94" type="line"/>
      <point x="97" y="94" type="line"/>
    </contour>
  </outline>
</glyph>
<glyph name="O" format="1">
  <advance width="1450"/>
  <unicode hex="004F"/>
  <outline>
    <contour>
      <point x="721" y="1152" type="move" name="top"/>
    </contour>
    <contour>
      <point x="723" y="138" type="curve" smooth="yes"/>
      <point x="487" y="138"/>
      <point x="327" y="314"/>
      <point x="327" y="572" type="curve" smooth="yes"/>
      <point x="327" y="836"/>
      <point x="487" y="1016"/>
      <point x="724" y="1016" type="curve" smooth="yes"/>
      <point x="961" y="1016"/>
      <point x="1121" y="836"/>
      <point x="1121" y="573" type="curve" smooth="yes"/>
      <point x="1121" y="314"/>
      <point x="960" y="138"/>
    </contour>
    <contour>
      <point x="724" y="-22" type="curve" smooth="yes"/>
      <point x="1087" y="-22"/>
      <point x="1360" y="233"/>
      <point x="1360" y="573" type="curve" smooth="yes"/>
      <point x="1360" y="916"/>
      <point x="1087" y="1174"/>
      <point x="723" y="1174" type="curve" smooth="yes"/>
      <point x="361" y="1174"/>
      <point x="90" y="917"/>
      <point x="90" y="574" type="curve" smooth="yes"/>
      <point x="90" y="233"/>
      <point x="362" y="-22"/>
    </contour>
  </outline>
</glyph>
<glyph name="P" format="1">
  <advance width="1167"/>
  <unicode hex="0050"/>
  <outline>
    <contour>
      <point x="612" y="1152" type="move" name="top"/>
    </contour>
    <contour>
      <point x="478" y="482" type="line"/>
      <point x="664" y="482" type="line" smooth="yes"/>
      <point x="933" y="482"/>
      <point x="1079" y="606"/>
      <point x="1079" y="831" type="curve" smooth="yes"/>
      <point x="1079" y="1038"/>
      <point x="935" y="1152"/>
      <point x="670" y="1152" type="curve" smooth="yes"/>
      <point x="328" y="1152" type="line"/>
      <point x="328" y="1059" type="line"/>
      <point x="685" y="1059" type="line" smooth="yes"/>
      <point x="844" y="1059"/>
      <point x="933" y="977"/>
      <point x="933" y="830" type="curve" smooth="yes"/>
      <point x="933" y="667"/>
      <point x="837" y="575"/>
      <point x="659" y="575" type="curve" smooth="yes"/>
      <point x="478" y="575" type="line"/>
    </contour>
    <component base="uc_main_stem" xOffset="-32"/>
  </outline>
</glyph>
<glyph name="Q" format="1">
  <advance width="1445"/>
  <unicode hex="0051"/>
  <outline>
    <contour>
      <point x="1186" y="-241" type="curve"/>
      <point x="1181" y="-147" type="line"/>
      <point x="1138.24" y="-158.376"/>
      <point x="1100.72" y="-163.558"/>
      <point x="1067.22" y="-163.558" type="curve" smooth="yes"/>
      <point x="950.303" y="-163.558"/>
      <point x="882.405" y="-100.441"/>
      <point x="812.211" y="-17.1785" type="curve"/>
      <point x="1147.34" y="21.1143"/>
      <point x="1346" y="282.136"/>
      <point x="1346" y="573" type="curve" smooth="yes"/>
      <point x="1346" y="887"/>
      <point x="1112" y="1174"/>
      <point x="725" y="1174" type="curve" smooth="yes"/>
      <point x="340" y="1174"/>
      <point x="107" y="888"/>
      <point x="107" y="573" type="curve" smooth="yes"/>
      <point x="107" y="270.025"/>
      <point x="322.994" y="-2.22614"/>
      <point x="685.811" y="-20.9714" type="curve"/>
      <point x="792.295" y="-166.734"/>
      <point x="907.736" y="-257.757"/>
      <point x="1063.98" y="-257.757" type="curve" smooth="yes"/>
      <point x="1102.08" y="-257.757"/>
      <point x="1142.59" y="-252.347"/>
    </contour>
    <contour>
      <point x="725" y="83" type="curve" smooth="yes"/>
      <point x="421" y="83"/>
      <point x="258" y="308"/>
      <point x="258" y="572" type="curve" smooth="yes"/>
      <point x="258" y="834"/>
      <point x="423" y="1070"/>
      <point x="726" y="1070" type="curve" smooth="yes"/>
      <point x="1027" y="1070"/>
      <point x="1194" y="834"/>
      <point x="1194" y="573" type="curve" smooth="yes"/>
      <point x="1194" y="312"/>
      <point x="1026" y="83"/>
    </contour>
  </outline>
</glyph>
<glyph name="R" format="1">
  <advance width="1272"/>
  <unicode hex="0052"/>
  <outline>
    <contour>
      <point x="943" y="0" type="line"/>
      <point x="1211" y="0" type="line"/>
      <point x="1211" y="94" type="line"/>
      <point x="1041" y="94" type="line"/>
      <point x="766" y="544" type="line"/>
      <point x="994" y="570"/>
      <point x="1077" y="694"/>
      <point x="1077" y="849" type="curve" smooth="yes"/>
      <point x="1077" y="1039"/>
      <point x="941" y="1152"/>
      <point x="700" y="1152" type="curve" smooth="yes"/>
      <point x="90" y="1152" type="line"/>
      <point x="90" y="1059" type="line"/>
      <point x="254" y="1059" type="line"/>
      <point x="254" y="93" type="line"/>
      <point x="90" y="93" type="line"/>
      <point x="90" y="0" type="line"/>
      <point x="559" y="0" type="line"/>
      <point x="559" y="93" type="line"/>
      <point x="396" y="93" type="line"/>
      <point x="396" y="1059" type="line"/>
      <point x="704" y="1059" type="line" smooth="yes"/>
      <point x="869" y="1059"/>
      <point x="936" y="960"/>
      <point x="936" y="848" type="curve" smooth="yes"/>
      <point x="936" y="744"/>
      <point x="884" y="627"/>
      <point x="668" y="627" type="curve" smooth="yes"/>
      <point x="459" y="627" type="line"/>
      <point x="459" y="531" type="line"/>
      <point x="629" y="531" type="line"/>
    </contour>
  </outline>
</glyph>
<glyph name="U" format="1">
  <advance width="1400"/>
  <unicode hex="0055"/>
  <outline>
    <contour>
      <point x="715" y="1152" type="move" name="top"/>
    </contour>
    <contour>
      <point x="781" y="0" type="move" name="ogonek"/>
    </contour>
    <contour>
      <point x="702" y="-20" type="curve" smooth="yes"/>
      <point x="992" y="-20"/>
      <point x="1197" y="122"/>
      <point x="1197" y="397" type="curve" smooth="yes"/>
      <point x="1197" y="1059" type="line"/>
      <point x="1353" y="1059" type="line"/>
      <point x="1353" y="1152" type="line"/>
      <point x="923" y="1152" type="line"/>
      <point x="923" y="1059" type="line"/>
      <point x="1074" y="1059" type="line"/>
      <point x="1074" y="392" type="line" smooth="yes"/>
      <point x="1074" y="202"/>
      <point x="934" y="85"/>
      <point x="705" y="85" type="curve" smooth="yes"/>
      <point x="489" y="85"/>
      <point x="357" y="203"/>
      <point x="357" y="391" type="curve" smooth="yes"/>
      <point x="357" y="1059" type="line"/>
      <point x="511" y="1059" type="line"/>
      <point x="511" y="1152" type="line"/>
      <point x="63" y="1152" type="line"/>
      <point x="63" y="1059" type="line"/>
      <point x="216" y="1059" type="line"/>
      <point x="216" y="408" type="line" smooth="yes"/>
      <point x="216" y="161"/>
      <point x="367" y="-20"/>
    </contour>
  </outline>
</glyph>
<glyph name="V" format="1">
  <advance width="1363"/>
  <unicode hex="0056"/>
  <outline>
    <contour>
      <point x="592" y="0" type="line"/>
      <point x="780" y="0" type="line"/>
      <point x="1182" y="1012" type="line"/>
      <point x="1332" y="1012" type="line"/>
      <point x="1332" y="1152" type="line"/>
      <point x="850" y="1152" type="line"/>
      <point x="850" y="1012" type="line"/>
      <point x="994" y="1012" type="line"/>
      <point x="702" y="236" type="line"/>
      <point x="406" y="1012" type="line"/>
      <point x="552" y="1012" type="line"/>
      <point x="552" y="1152" type="line"/>
      <point x="31" y="1152" type="line"/>
      <point x="31" y="1012" type="line"/>
      <point x="181" y="1012" type="line"/>
    </contour>
  </outline>
</glyph>
<glyph name="W" format="1">
  <advance width="1904"/>
  <unicode hex="0057"/>
  <outline>
    <contour>
      <point x="965" y="1152" type="move" name="top"/>
    </contour>
    <contour>
      <point x="534" y="0" type="line"/>
      <point x="659" y="0" type="line"/>
      <point x="955" y="898" type="line"/>
      <point x="1251" y="0" type="line"/>
      <point x="1377" y="0" type="line"/>
      <point x="1706" y="1059" type="line"/>
      <point x="1850" y="1059" type="line"/>
      <point x="1850" y="1152" type="line"/>
      <point x="1436" y="1152" type="line"/>
      <point x="1436" y="1059" type="line"/>
      <point x="1586" y="1059" type="line"/>
      <point x="1321" y="182" type="line"/>
      <point x="1014" y="1123" type="line"/>
      <point x="911" y="1123" type="line"/>
      <point x="605" y="182" type="line"/>
      <point x="333" y="1059" type="line"/>
      <point x="485" y="1059" type="line"/>
      <point x="485" y="1152" type="line"/>
      <point x="54" y="1152" type="line"/>
      <point x="54" y="1059" type="line"/>
      <point x="196" y="1059" type="line"/>
    </contour>
  </outline>
</glyph>
<glyph name="Z" format="1">
  <advance width="1191"/>
  <unicode hex="005A"/>
  <outline>
    <contour>
      <point x="629" y="1152" type="move" name="top"/>
    </contour>
    <contour>
      <point x="130" y="0" type="line"/>
      <point x="1075" y="0" type="line"/>
      <point x="1075" y="391" type="line"/>
      <point x="969" y="391" type="line"/>
      <point x="969" y="94" type="line"/>
      <point x="297" y="94" type="line"/>
      <point x="1057" y="1062" type="line"/>
      <point x="1057" y="1152" type="line"/>
      <point x="160" y="1152" type="line"/>
      <point x="160" y="780" type="line"/>
      <point x="267" y="780" type="line"/>
      <point x="267" y="1059" type="line"/>
      <point x="885" y="1059" type="line"/>
      <point x="130" y="100" type="line"/>
    </contour>
  </outline>
</glyph>
<glyph name="bracketleft" format="1">
  <advance width="525"/>
  <unicode hex="005B"/>
  <outline>
    <contour>
      <point x="167" y="-165" type="line"/>
      <point x="466" y="-165" type="line"/>
      <point x="466" y="-64" type="line"/>
      <point x="308" y="-64" type="line"/>
      <point x="308" y="1134" type="line"/>
      <point x="466" y="1134" type="line"/>
      <point x="466" y="1233" type="line"/>
      <point x="167" y="1233" type="line"/>
    </contour>
  </outline>
</glyph>
<glyph name="backslash" format="1">
  <advance width="563"/>
  <unicode hex="005C"/>
  <outline>
    <contour>
      <point x="446" y="-22" type="line"/>
      <point x="563" y="-22" type="line"/>
      <point x="109" y="1201" type="line"/>
      <point x="-5" y="1201" type="line"/>
    </contour>
  </outline>
</glyph>
<glyph name="bracketright" format="1">
  <advance width="524"/>
  <unicode hex="005D"/>
  <outline>
    <contour>
      <point x="54" y="-165" type="line"/>
      <point x="354" y="-165" type="line"/>
      <point x="354" y="1233" type="line"/>
      <point x="54" y="1233" type="line"/>
      <point x="54" y="1134" type="line"/>
      <point x="213" y="1134" type="line"/>
      <point x="213" y="-64" type="line"/>
      <point x="54" y="-64" type="line"/>
    </contour>
  </outline>
</glyph>
<glyph name="asciicircum" format="1">
  <advance width="923"/>
  <unicode hex="005E"/>
  <outline>
    <contour>
      <point x="74" y="693" type="line"/>
      <point x="194" y="693" type="line"/>
      <point x="465" y="1149" type="line"/>
      <point x="727" y="693" type="line"/>
      <point x="847" y="693" type="line"/>
      <point x="527" y="1258" type="line"/>
      <point x="404" y="1258" type="line"/>
    </contour>
  </outline>
</glyph>
<glyph name="grave" format="1">
  <advance width="288"/>
  <unicode hex="0060"/>
  <outline>
    <contour>
      <point x="201" y="804" type="move" name="_top"/>
    </contour>
    <contour>
      <point x="157" y="979" type="line"/>
      <point x="239" y="979" type="line"/>
      <point x="134" y="1266" type="line"/>
      <point x="-12" y="1266" type="line"/>
    </contour>
  </outline>
</glyph>
<glyph name="b" format="1">
  <advance width="1062"/>
  <unicode hex="0062"/>
  <outline>
    <contour>
      <point x="634" y="804" type="move" name="top"/>
    </contour>
    <contour>
      <point x="590" y="-21" type="curve"/>
      <point x="820.285" y="-21"/>
      <point x="1009.02" y="138.599"/>
      <point x="1009.02" y="412.627" type="curve" smooth="yes"/>
      <point x="1009.02" y="676.733"/>
      <point x="838.691" y="825"/>
      <point x="614" y="825" type="curve" smooth="yes"/>
      <point x="519.236" y="825"/>
      <point x="417.496" y="791.39"/>
      <point x="331" y="728.714" type="curve"/>
      <point x="331" y="1174" type="line"/>
      <point x="59" y="1174" type="line"/>
      <point x="59" y="1081" type="line"/>
      <point x="200" y="1081" type="line"/>
      <point x="200" y="93" type="line"/>
      <point x="54" y="93" type="line"/>
      <point x="54" y="0" type="line"/>
      <point x="331" y="0" type="line"/>
      <point x="331" y="73.303" type="line"/>
      <point x="405.018" y="11.2018"/>
      <point x="560.457" y="-10.2434"/>
    </contour>
    <contour>
      <point x="331" y="628.576" type="line"/>
      <point x="410.51" y="692.079"/>
      <point x="501.076" y="726"/>
      <point x="581" y="726" type="curve" smooth="yes"/>
      <point x="753" y="726"/>
      <point x="875" y="606"/>
      <point x="875" y="401" type="curve" smooth="yes"/>
      <point x="875" y="192"/>
      <point x="746" y="76"/>
      <point x="569" y="76" type="curve" smooth="yes"/>
      <point x="488.376" y="76"/>
      <point x="402.129" y="108.489"/>
      <point x="331" y="167.54" type="curve"/>
    </contour>
  </outline>
</glyph>
<glyph name="c" format="1">
  <advance width="959"/>
  <unicode hex="0063"/>
  <outline>
    <contour>
      <point x="497" y="804" type="move" name="top"/>
    </contour>
    <contour>
      <point x="480" y="0" type="move" name="bot"/>
    </contour>
    <contour>
      <point x="488" y="-20" type="curve" smooth="yes"/>
      <point x="653" y="-20"/>
      <point x="773" y="44"/>
      <point x="855" y="145" type="curve"/>
      <point x="804" y="227" type="line"/>
      <point x="724" y="138"/>
      <point x="640" y="79"/>
      <point x="491" y="82" type="curve" smooth="yes"/>
      <point x="315" y="84"/>
      <point x="190" y="221"/>
      <point x="190" y="409" type="curve" smooth="yes"/>
      <point x="190" y="591"/>
      <point x="317" y="721"/>
      <point x="495" y="724" type="curve" smooth="yes"/>
      <point x="632" y="728"/>
      <point x="733" y="653"/>
      <point x="756" y="532" type="curve"/>
      <point x="855" y="532" type="line"/>
      <point x="855" y="807" type="line"/>
      <point x="744" y="807" type="line"/>
      <point x="744" y="708" type="line"/>
      <point x="710" y="775"/>
      <point x="601" y="826"/>
      <point x="491" y="826" type="curve" smooth="yes"/>
      <point x="236" y="826"/>
      <point x="56" y="653"/>
      <point x="56" y="407" type="curve" smooth="yes"/>
      <point x="56" y="157"/>
      <point x="235" y="-20"/>
    </contour>
  </outline>
</glyph>
<glyph name="d" format="1">
  <advance width="1042"/>
  <unicode hex="0064"/>
  <outline>
    <contour>
      <point x="950" y="804" type="move" name="caron.alt"/>
    </contour>
    <contour>
      <point x="390" y="804" type="move" name="top"/>
    </contour>
    <contour>
      <point x="739" y="0" type="line"/>
      <point x="999" y="0" type="line"/>
      <point x="999" y="93" type="line"/>
      <point x="869" y="93" type="line"/>
      <point x="869" y="1174" type="line"/>
      <point x="597" y="1174" type="line"/>
      <point x="597" y="1081" type="line"/>
      <point x="739" y="1081" type="line"/>
      <point x="739" y="735.358" type="line"/>
      <point x="655.546" y="792.922"/>
      <point x="552.247" y="825"/>
      <point x="455" y="825" type="curve" smooth="yes"/>
      <point x="237.213" y="825"/>
      <point x="58.9834" y="670.723"/>
      <point x="58.9834" y="404.458" type="curve" smooth="yes"/>
      <point x="58.9834" y="140.513"/>
      <point x="246.048" y="-22"/>
      <point x="473" y="-22" type="curve" smooth="yes"/>
      <point x="563.666" y="-22"/>
      <point x="659.557" y="8.76605"/>
      <point x="739" y="64.9908" type="curve"/>
    </contour>
    <contour>
      <point x="739" y="156.798" type="line"/>
      <point x="664.636" y="106.275"/>
      <point x="577.033" y="77"/>
      <point x="499" y="77" type="curve" smooth="yes"/>
      <point x="326" y="77"/>
      <point x="193" y="194"/>
      <point x="193" y="393" type="curve" smooth="yes"/>
      <point x="193" y="604"/>
      <point x="313" y="727"/>
      <point x="479" y="727" type="curve" smooth="yes"/>
      <point x="563.208" y="727"/>
      <point x="657.143" y="695.995"/>
      <point x="739" y="642.518" type="curve"/>
    </contour>
  </outline>
</glyph>
<glyph name="f" format="1">
  <advance width="695"/>
  <unicode hex="0066"/>
  <outline>
    <contour>
      <point x="387" y="1118" type="move" name="top"/>
    </contour>
    <contour>
      <point x="90" y="0" type="line"/>
      <point x="583" y="0" type="line"/>
      <point x="583" y="94" type="line"/>
      <point x="379" y="94" type="line"/>
      <point x="379" y="711" type="line"/>
      <point x="594" y="711" type="line"/>
      <point x="594" y="804" type="line"/>
      <point x="379" y="804" type="line"/>
      <point x="379" y="987" type="line" smooth="yes"/>
      <point x="379" y="1080"/>
      <point x="417" y="1122"/>
      <point x="478" y="1122" type="curve" smooth="yes"/>
      <point x="543" y="1122"/>
      <point x="570" y="1079"/>
      <point x="580" y="1009" type="curve"/>
      <point x="681" y="1038" type="line"/>
      <point x="672" y="1167"/>
      <point x="579" y="1215"/>
      <point x="474" y="1215" type="curve" smooth="yes"/>
      <point x="322" y="1215"/>
      <point x="247" y="1126"/>
      <point x="247" y="988" type="curve" smooth="yes"/>
      <point x="247" y="804" type="line"/>
      <point x="91" y="804" type="line"/>
      <point x="91" y="711" type="line"/>
      <point x="247" y="711" type="line"/>
      <point x="247" y="94" type="line"/>
      <point x="90" y="94" type="line"/>
    </contour>
  </outline>
</glyph>
<glyph name="g" format="1">
  <advance width="1067"/>
  <unicode hex="0067"/>
  <outline>
    <contour>
      <point x="511" y="804" type="move" name="top"/>
    </contour>
    <contour>
      <point x="483" y="-390" type="curve" smooth="yes"/>
      <point x="720" y="-390"/>
      <point x="914" y="-289"/>
      <point x="914" y="-18" type="curve" smooth="yes"/>
      <point x="914" y="664" type="line"/>
      <point x="1049" y="664" type="line"/>
      <point x="1049" y="804" type="line"/>
      <point x="716" y="804" type="line"/>
      <point x="716" y="747" type="line"/>
      <point x="649" y="798"/>
      <point x="553" y="824"/>
      <point x="474" y="824" type="curve" smooth="yes"/>
      <point x="250" y="824"/>
      <point x="63" y="687"/>
      <point x="63" y="410" type="curve" smooth="yes"/>
      <point x="63" y="140"/>
      <point x="249" y="-7"/>
      <point x="468" y="-7" type="curve" smooth="yes"/>
      <point x="553" y="-6"/>
      <point x="640" y="18"/>
      <point x="717" y="67" type="curve"/>
      <point x="717" y="-27" type="line" smooth="yes"/>
      <point x="717" y="-178"/>
      <point x="619" y="-231"/>
      <point x="477" y="-231" type="curve" smooth="yes"/>
      <point x="393" y="-231"/>
      <point x="299" y="-212"/>
      <point x="212" y="-184" type="curve"/>
      <point x="172" y="-338" type="line"/>
      <point x="271" y="-371"/>
      <point x="380" y="-390"/>
    </contour>
    <contour>
      <point x="716" y="610" type="curve"/>
      <point x="717" y="200" type="line"/>
      <point x="651" y="161"/>
      <point x="579" y="140"/>
      <point x="513" y="140" type="curve" smooth="yes"/>
      <point x="381" y="140"/>
      <point x="270" y="222"/>
      <point x="270" y="396" type="curve" smooth="yes"/>
      <point x="270" y="589"/>
      <point x="368" y="677"/>
      <point x="499" y="677" type="curve" smooth="yes"/>
      <point x="567" y="677"/>
      <point x="643" y="654"/>
    </contour>
  </outline>
</glyph>
<glyph name="h" format="1">
  <advance width="1045"/>
  <unicode hex="0068"/>
  <outline>
    <contour>
      <point x="593" y="1050" type="move" name="top"/>
    </contour>
    <contour>
      <point x="254" y="943" type="move" name="mid"/>
    </contour>
    <component base="lc_xheight_curved_stem" xOffset="-94"/>
    <component base="lc_ascender_stem" xOffset="-62"/>
  </outline>
</glyph>
<glyph name="i" format="1">
  <advance width="608"/>
  <unicode hex="0069"/>
  <outline>
    <contour>
      <point x="322" y="989" type="curve" smooth="yes"/>
      <point x="378" y="989"/>
      <point x="421" y="1029"/>
      <point x="421" y="1081" type="curve" smooth="yes"/>
      <point x="421" y="1132"/>
      <point x="378" y="1172"/>
      <point x="322" y="1172" type="curve" smooth="yes"/>
      <point x="268" y="1172"/>
      <point x="226" y="1132"/>
      <point x="226" y="1081" type="curve" smooth="yes"/>
      <point x="226" y="1029"/>
      <point x="268" y="989"/>
    </contour>
    <contour>
      <point x="117" y="0" type="line"/>
      <point x="557" y="0" type="line"/>
      <point x="557" y="93" type="line"/>
      <point x="407" y="93" type="line"/>
      <point x="407" y="804" type="line"/>
      <point x="118" y="804" type="line"/>
      <point x="118" y="711" type="line"/>
      <point x="278" y="711" type="line"/>
      <point x="278" y="93" type="line"/>
      <point x="117" y="93" type="line"/>
    </contour>
  </outline>
</glyph>
<glyph name="k" format="1">
  <advance width="1011"/>
  <unicode hex="006B"/>
  <outline>
    <contour>
      <point x="669" y="970" type="move" name="top"/>
    </contour>
    <contour>
      <point x="544" y="0" type="move" name="bot"/>
    </contour>
    <contour>
      <point x="746" y="0" type="line"/>
      <point x="976" y="0" type="line"/>
      <point x="976" y="94" type="line"/>
      <point x="811" y="94" type="line"/>
      <point x="471" y="420" type="line"/>
      <point x="842" y="711" type="line"/>
      <point x="971" y="711" type="line"/>
      <point x="971" y="804" type="line"/>
      <point x="552" y="804" type="line"/>
      <point x="552" y="711" type="line"/>
      <point x="706" y="711" type="line"/>
      <point x="320" y="417" type="line"/>
    </contour>
    <component base="lc_ascender_stem" xOffset="-46"/>
  </outline>
</glyph>
<glyph name="l" format="1">
  <advance width="570"/>
  <unicode hex="006C"/>
  <outline>
    <contour>
      <point x="302" y="1152" type="move" name="top"/>
    </contour>
    <contour>
      <point x="296" y="0" type="move" name="bot"/>
    </contour>
    <contour>
      <point x="54" y="0" type="line"/>
      <point x="526" y="0" type="line"/>
      <point x="526" y="140" type="line"/>
      <point x="403" y="140" type="line"/>
      <point x="403" y="1174" type="line"/>
      <point x="56" y="1174" type="line"/>
      <point x="56" y="1034" type="line"/>
      <point x="205" y="1034" type="line"/>
      <point x="205" y="140" type="line"/>
      <point x="54" y="140" type="line"/>
    </contour>
  </outline>
</glyph>
<glyph name="m" format="1">
  <advance width="1604"/>
  <unicode hex="006D"/>
  <outline>
    <contour>
      <point x="843" y="804" type="move" name="top"/>
    </contour>
    <contour>
      <point x="43" y="0" type="line"/>
      <point x="483" y="0" type="line"/>
      <point x="483" y="93" type="line"/>
      <point x="333" y="93" type="line"/>
      <point x="333" y="629.694" type="line"/>
      <point x="420.916" y="684.075"/>
      <point x="517.254" y="723"/>
      <point x="595" y="723" type="curve" smooth="yes"/>
      <point x="696" y="723"/>
      <point x="758" y="657"/>
      <point x="758" y="543" type="curve" smooth="yes"/>
      <point x="758" y="93" type="line"/>
      <point x="615" y="93" type="line"/>
      <point x="615" y="0" type="line"/>
      <point x="1036" y="0" type="line"/>
      <point x="1036" y="93" type="line"/>
      <point x="887" y="93" type="line"/>
      <point x="887" y="562" type="line" smooth="yes"/>
      <point x="887" y="582.756"/>
      <point x="885.296" y="602.396"/>
      <point x="882.035" y="620.881" type="curve"/>
      <point x="973.606" y="679.82"/>
      <point x="1076.11" y="723"/>
      <point x="1158" y="723" type="curve" smooth="yes"/>
      <point x="1259" y="723"/>
      <point x="1321" y="657"/>
      <point x="1321" y="543" type="curve" smooth="yes"/>
      <point x="1321" y="93" type="line"/>
      <point x="1178" y="93" type="line"/>
      <point x="1178" y="0" type="line"/>
      <point x="1599" y="0" type="line"/>
      <point x="1599" y="93" type="line"/>
      <point x="1450" y="93" type="line"/>
      <point x="1450" y="562" type="line" smooth="yes"/>
      <point x="1450" y="731"/>
      <point x="1337" y="826"/>
      <point x="1191" y="826" type="curve" smooth="yes"/>
      <point x="1083.33" y="826"/>
      <point x="966.163" y="771.368"/>
      <point x="857.106" y="696.625" type="curve"/>
      <point x="814.165" y="780.559"/>
      <point x="728.975" y="826"/>
      <point x="628" y="826" type="curve" smooth="yes"/>
      <point x="533.03" y="826"/>
      <point x="430.667" y="783.494"/>
      <point x="333" y="722.173" type="curve"/>
      <point x="333" y="804" type="line"/>
      <point x="44" y="804" type="line"/>
      <point x="44" y="711" type="line"/>
      <point x="204" y="711" type="line"/>
      <point x="204" y="93" type="line"/>
      <point x="43" y="93" type="line"/>
    </contour>
  </outline>
</glyph>
<glyph name="p" format="1">
  <advance width="1045"/>
  <unicode hex="0070"/>
  <outline>
    <contour>
      <point x="567" y="804" type="move" name="top"/>
    </contour>
    <contour>
      <point x="44" y="-318" type="line"/>
      <point x="470" y="-318" type="line"/>
      <point x="470" y="-225" type="line"/>
      <point x="317" y="-225" type="line"/>
      <point x="317" y="68.3679" type="line"/>
      <point x="390.013" y="9.49665"/>
      <point x="480.571" y="-21"/>
      <point x="570" y="-21" type="curve" smooth="yes"/>
      <point x="800.285" y="-21"/>
      <point x="989.017" y="138.599"/>
      <point x="989.017" y="412.627" type="curve" smooth="yes"/>
      <point x="989.017" y="676.733"/>
      <point x="818.691" y="825"/>
      <point x="594" y="825" type="curve" smooth="yes"/>
      <point x="499.961" y="825"/>
      <point x="399.052" y="791.902"/>
      <point x="312.988" y="730.148" type="curve"/>
      <point x="310" y="804" type="line"/>
      <point x="51" y="804" type="line"/>
      <point x="51" y="711" type="line"/>
      <point x="188" y="711" type="line"/>
      <point x="188" y="-225" type="line"/>
      <point x="44" y="-225" type="line"/>
    </contour>
    <contour>
      <point x="317" y="162.65" type="curve"/>
      <point x="317" y="631" type="line"/>
      <point x="316.91" y="633.226" type="line"/>
      <point x="394.976" y="693.733"/>
      <point x="483.05" y="726"/>
      <point x="561" y="726" type="curve" smooth="yes"/>
      <point x="733" y="726"/>
      <point x="855" y="606"/>
      <point x="855" y="401" type="curve" smooth="yes"/>
      <point x="855" y="192"/>
      <point x="726" y="76"/>
      <point x="549" y="76" type="curve" smooth="yes"/>
      <point x="470.63" y="76"/>
      <point x="386.946" y="106.698"/>
    </contour>
  </outline>
</glyph>
<glyph name="q" format="1">
  <advance width="1079"/>
  <unicode hex="0071"/>
  <outline>
    <contour>
      <point x="604" y="-330" type="line"/>
      <point x="1029" y="-330" type="line"/>
      <point x="1029" y="-232" type="line"/>
      <point x="886" y="-232" type="line"/>
      <point x="886" y="711" type="line"/>
      <point x="1025" y="711" type="line"/>
      <point x="1025" y="804" type="line"/>
      <point x="760" y="804" type="line"/>
      <point x="757.002" y="721.543" type="line"/>
      <point x="670.566" y="787.767"/>
      <point x="558.77" y="825"/>
      <point x="454" y="825" type="curve" smooth="yes"/>
      <point x="236.213" y="825"/>
      <point x="57.9834" y="670.723"/>
      <point x="57.9834" y="404.458" type="curve" smooth="yes"/>
      <point x="57.9834" y="140.513"/>
      <point x="245.048" y="-22"/>
      <point x="472" y="-22" type="curve" smooth="yes"/>
      <point x="569.628" y="-22"/>
      <point x="673.314" y="13.6723"/>
      <point x="756" y="78.3908" type="curve"/>
      <point x="756" y="-232" type="line"/>
      <point x="604" y="-232" type="line"/>
    </contour>
    <contour>
      <point x="756" y="630.256" type="curve"/>
      <point x="756" y="169.641" type="line"/>
      <point x="678.056" y="111.268"/>
      <point x="582.426" y="77"/>
      <point x="498" y="77" type="curve" smooth="yes"/>
      <point x="325" y="77"/>
      <point x="192" y="194"/>
      <point x="192" y="393" type="curve" smooth="yes"/>
      <point x="192" y="604"/>
      <point x="312" y="727"/>
      <point x="478" y="727" type="curve" smooth="yes"/>
      <point x="568.451" y="727"/>
      <point x="670.126" y="691.227"/>
    </contour>
  </outline>
</glyph>
<glyph name="s" format="1">
  <advance width="893"/>
  <unicode hex="0073"/>
  <outline>
    <contour>
      <point x="441" y="804" type="move" name="top"/>
    </contour>
    <contour>
      <point x="473" y="0" type="move" name="bot"/>
    </contour>
    <contour>
      <point x="495" y="-21" type="curve" smooth="yes"/>
      <point x="648" y="-21"/>
      <point x="800" y="48"/>
      <point x="804" y="200" type="curve" smooth="yes"/>
      <point x="809" y="382"/>
      <point x="688" y="420"/>
      <point x="526" y="458" type="curve" smooth="yes"/>
      <point x="415" y="483" type="line" smooth="yes"/>
      <point x="310" y="508"/>
      <point x="258" y="537"/>
      <point x="257" y="605" type="curve" smooth="yes"/>
      <point x="257" y="691"/>
      <point x="348" y="731"/>
      <point x="442" y="731" type="curve" smooth="yes"/>
      <point x="523" y="731"/>
      <point x="621" y="697"/>
      <point x="664" y="644" type="curve"/>
      <point x="676" y="534" type="line"/>
      <point x="770" y="534" type="line"/>
      <point x="770" y="807" type="line"/>
      <point x="664" y="807" type="line"/>
      <point x="664" y="744" type="line"/>
      <point x="607" y="797"/>
      <point x="507" y="826"/>
      <point x="423" y="826" type="curve" smooth="yes"/>
      <point x="258" y="826"/>
      <point x="128" y="747"/>
      <point x="128" y="601" type="curve" smooth="yes"/>
      <point x="128" y="457"/>
      <point x="219" y="408"/>
      <point x="365" y="374" type="curve" smooth="yes"/>
      <point x="482" y="348" type="line" smooth="yes"/>
      <point x="620" y="318"/>
      <point x="680" y="296"/>
      <point x="680" y="200" type="curve"/>
      <point x="681" y="118"/>
      <point x="594" y="69"/>
      <point x="480" y="69" type="curve" smooth="yes"/>
      <point x="380" y="69"/>
      <point x="281" y="106"/>
      <point x="228" y="178" type="curve"/>
      <point x="221" y="269" type="line"/>
      <point x="128" y="269" type="line"/>
      <point x="128" y="0" type="line"/>
      <point x="230" y="0" type="line"/>
      <point x="230" y="72" type="line"/>
      <point x="284" y="16"/>
      <point x="387" y="-21"/>
    </contour>
  </outline>
</glyph>
<glyph name="t" format="1">
  <advance width="608"/>
  <unicode hex="0074"/>
  <outline>
    <contour>
      <point x="416" y="0" type="curve" smooth="yes"/>
      <point x="551" y="0" type="line"/>
      <point x="551" y="93" type="line"/>
      <point x="438" y="93" type="line" smooth="yes"/>
      <point x="344" y="93"/>
      <point x="308" y="133"/>
      <point x="308" y="241" type="curve" smooth="yes"/>
      <point x="308" y="711" type="line"/>
      <point x="527" y="711" type="line"/>
      <point x="527" y="804" type="line"/>
      <point x="308" y="804" type="line"/>
      <point x="308" y="1130" type="line"/>
      <point x="179" y="1080" type="line"/>
      <point x="179" y="804" type="line"/>
      <point x="41" y="804" type="line"/>
      <point x="41" y="711" type="line"/>
      <point x="178" y="711" type="line"/>
      <point x="178" y="234" type="line" smooth="yes"/>
      <point x="178" y="70"/>
      <point x="264" y="0"/>
    </contour>
  </outline>
</glyph>
<glyph name="w" format="1">
  <advance width="1486"/>
  <unicode hex="0077"/>
  <outline>
    <contour>
      <point x="748" y="804" type="move" name="top"/>
    </contour>
    <contour>
      <point x="393" y="0" type="line"/>
      <point x="523" y="0" type="line"/>
      <point x="743" y="603" type="line"/>
      <point x="964" y="0" type="line"/>
      <point x="1093" y="0" type="line"/>
      <point x="1340" y="711" type="line"/>
      <point x="1457" y="711" type="line"/>
      <point x="1457" y="804" type="line"/>
      <point x="1103" y="804" type="line"/>
      <point x="1103" y="711" type="line"/>
      <point x="1221" y="711" type="line"/>
      <point x="1029" y="124" type="line"/>
      <point x="815" y="711" type="line"/>
      <point x="938" y="711" type="line"/>
      <point x="938" y="804" type="line"/>
      <point x="552" y="804" type="line"/>
      <point x="552" y="711" type="line"/>
      <point x="674" y="711" type="line"/>
      <point x="466" y="125" type="line"/>
      <point x="262" y="711" type="line"/>
      <point x="382" y="711" type="line"/>
      <point x="382" y="804" type="line"/>
      <point x="21" y="804" type="line"/>
      <point x="21" y="711" type="line"/>
      <point x="133" y="711" type="line"/>
    </contour>
  </outline>
</glyph>
<glyph name="x" format="1">
  <advance width="1009"/>
  <unicode hex="0078"/>
  <outline>
    <contour>
      <point x="49" y="0" type="line"/>
      <point x="452" y="0" type="line"/>
      <point x="452" y="141" type="line"/>
      <point x="340" y="141" type="line"/>
      <point x="499" y="316" type="line"/>
      <point x="664" y="141" type="line"/>
      <point x="549" y="141" type="line"/>
      <point x="549" y="0" type="line"/>
      <point x="973" y="0" type="line"/>
      <point x="973" y="141" type="line"/>
      <point x="867" y="141" type="line"/>
      <point x="612" y="420" type="line"/>
      <point x="838" y="664" type="line"/>
      <point x="973" y="664" type="line"/>
      <point x="973" y="804" type="line"/>
      <point x="560" y="804" type="line"/>
      <point x="560" y="664" type="line"/>
      <point x="658" y="664" type="line"/>
      <point x="513" y="502" type="line"/>
      <point x="367" y="664" type="line"/>
      <point x="467" y="664" type="line"/>
      <point x="467" y="804" type="line"/>
      <point x="42" y="804" type="line"/>
      <point x="42" y="664" type="line"/>
      <point x="165" y="664" type="line"/>
      <point x="402" y="409" type="line"/>
      <point x="157" y="141" type="line"/>
      <point x="49" y="141" type="line"/>
    </contour>
  </outline>
</glyph>
<glyph name="z" format="1">
  <advance width="908"/>
  <unicode hex="007A"/>
  <outline>
    <contour>
      <point x="478" y="804" type="move" name="top"/>
    </contour>
    <contour>
      <point x="114" y="0" type="line"/>
      <point x="805" y="0" type="line"/>
      <point x="805" y="282" type="line"/>
      <point x="703" y="282" type="line"/>
      <point x="703" y="89" type="line"/>
      <point x="265" y="89" type="line"/>
      <point x="793" y="705" type="line"/>
      <point x="793" y="804" type="line"/>
      <point x="127" y="804" type="line"/>
      <point x="127" y="541" type="line"/>
      <point x="229" y="541" type="line"/>
      <point x="229" y="714" type="line"/>
      <point x="645" y="714" type="line"/>
      <point x="114" y="95" type="line"/>
    </contour>
  </outline>
</glyph>
<glyph name="braceleft" format="1">
  <advance width="545"/>
  <unicode hex="007B"/>
  <outline>
    <contour>
      <point x="424" y="-104" type="curve" smooth="yes"/>
      <point x="494" y="-104" type="line"/>
      <point x="494" y="-15" type="line"/>
      <point x="328" y="-15"/>
      <point x="317" y="11"/>
      <point x="317" y="197" type="curve" smooth="yes"/>
      <point x="317" y="464"/>
      <point x="292" y="529"/>
      <point x="182" y="570" type="curve"/>
      <point x="302" y="612"/>
      <point x="318" y="680"/>
      <point x="318" y="978" type="curve" smooth="yes"/>
      <point x="318" y="1132"/>
      <point x="345" y="1156"/>
      <point x="494" y="1156" type="curve"/>
      <point x="494" y="1246" type="line"/>
      <point x="424" y="1246" type="line" smooth="yes"/>
      <point x="206" y="1246"/>
      <point x="204" y="1108"/>
      <point x="204" y="877" type="curve" smooth="yes"/>
      <point x="204" y="703"/>
      <point x="192" y="621"/>
      <point x="52" y="621" type="curve"/>
      <point x="52" y="521" type="line"/>
      <point x="191" y="521"/>
      <point x="204" y="440"/>
      <point x="204" y="271" type="curve" smooth="yes"/>
      <point x="204" y="29"/>
      <point x="208" y="-104"/>
    </contour>
  </outline>
</glyph>
<glyph name="braceright" format="1">
  <advance width="547"/>
  <unicode hex="007D"/>
  <outline>
    <contour>
      <point x="79" y="-104" type="line"/>
      <point x="150" y="-104" type="line" smooth="yes"/>
      <point x="367" y="-104"/>
      <point x="370" y="29"/>
      <point x="370" y="271" type="curve" smooth="yes"/>
      <point x="370" y="440"/>
      <point x="383" y="521"/>
      <point x="521" y="521" type="curve"/>
      <point x="521" y="621" type="line"/>
      <point x="381" y="621"/>
      <point x="370" y="705"/>
      <point x="370" y="880" type="curve" smooth="yes"/>
      <point x="370" y="1110"/>
      <point x="367" y="1246"/>
      <point x="151" y="1246" type="curve" smooth="yes"/>
      <point x="79" y="1246" type="line"/>
      <point x="79" y="1156" type="line"/>
      <point x="229" y="1156"/>
      <point x="257" y="1132"/>
      <point x="257" y="978" type="curve" smooth="yes"/>
      <point x="257" y="680"/>
      <point x="272" y="612"/>
      <point x="393" y="570" type="curve"/>
      <point x="281" y="528"/>
      <point x="258" y="463"/>
      <point x="258" y="193" type="curve" smooth="yes"/>
      <point x="258" y="10"/>
      <point x="245" y="-15"/>
      <point x="79" y="-15" type="curve"/>
    </contour>
  </outline>
</glyph>
<glyph name="exclamdown" format="1">
  <advance width="502"/>
  <unicode hex="00A1"/>
  <outline>
    <contour>
      <point x="307" y="472" type="line"/>
      <point x="198" y="472" type="line"/>
      <point x="153" y="-25" type="line"/>
      <point x="153" y="-341" type="line"/>
      <point x="356" y="-341" type="line"/>
      <point x="356" y="-25" type="line"/>
    </contour>
    <contour>
      <point x="256" y="893" type="curve" smooth="yes"/>
      <point x="178" y="893"/>
      <point x="117" y="836"/>
      <point x="117" y="762" type="curve" smooth="yes"/>
      <point x="117" y="690"/>
      <point x="178" y="632"/>
      <point x="256" y="632" type="curve" smooth="yes"/>
      <point x="332" y="632"/>
      <point x="393" y="690"/>
      <point x="393" y="762" type="curve" smooth="yes"/>
      <point x="393" y="836"/>
      <point x="332" y="893"/>
    </contour>
  </outline>
</glyph>
<glyph name="cent" format="1">
  <advance width="938"/>
  <unicode hex="00A2"/>
  <outline>
    <contour>
      <point x="359" y="-314" type="line"/>
      <point x="674" y="1105" type="line"/>
      <point x="616" y="1114" type="line"/>
      <point x="303" y="-304" type="line"/>
    </contour>
    <component base="c"/>
  </outline>
</glyph>
<glyph name="currency" format="1">
  <advance width="1010"/>
  <unicode hex="00A4"/>
  <outline>
    <contour>
      <point x="786" y="451" type="line"/>
      <point x="855" y="519" type="line"/>
      <point x="770" y="603" type="line"/>
      <point x="817" y="659"/>
      <point x="844" y="726"/>
      <point x="844" y="806" type="curve" smooth="yes"/>
      <point x="844" y="882"/>
      <point x="820" y="949"/>
      <point x="772" y="1005" type="curve"/>
      <point x="855" y="1088" type="line"/>
      <point x="786" y="1157" type="line"/>
      <point x="698" y="1069" type="line"/>
      <point x="643" y="1104"/>
      <point x="578" y="1124"/>
      <point x="504" y="1124" type="curve" smooth="yes"/>
      <point x="430" y="1124"/>
      <point x="366" y="1104"/>
      <point x="311" y="1071" type="curve"/>
      <point x="225" y="1157" type="line"/>
      <point x="156" y="1088" type="line"/>
      <point x="236" y="1007" type="line"/>
      <point x="188" y="951"/>
      <point x="163" y="884"/>
      <point x="163" y="806" type="curve" smooth="yes"/>
      <point x="163" y="726"/>
      <point x="191" y="657"/>
      <point x="238" y="601" type="curve"/>
      <point x="156" y="519" type="line"/>
      <point x="225" y="451" type="line"/>
      <point x="313" y="538" type="line"/>
      <point x="368" y="505"/>
      <point x="430" y="486"/>
      <point x="504" y="486" type="curve" smooth="yes"/>
      <point x="577" y="486"/>
      <point x="640" y="504"/>
      <point x="696" y="539" type="curve"/>
    </contour>
    <contour>
      <point x="504" y="600" type="curve" smooth="yes"/>
      <point x="382" y="600"/>
      <point x="301" y="694"/>
      <point x="301" y="805" type="curve" smooth="yes"/>
      <point x="301" y="913"/>
      <point x="380" y="1006"/>
      <point x="504" y="1006" type="curve" smooth="yes"/>
      <point x="626" y="1006"/>
      <point x="706" y="913"/>
      <point x="706" y="804" type="curve" smooth="yes"/>
      <point x="706" y="694"/>
      <point x="627" y="600"/>
    </contour>
  </outline>
</glyph>
<glyph name="brokenbar" format="1">
  <advance width="445"/>
  <unicode hex="00A6"/>
  <outline>
    <contour>
      <point x="179" y="-135" type="line"/>
      <point x="268" y="-135" type="line"/>
      <point x="268" y="421" type="line"/>
      <point x="179" y="421" type="line"/>
    </contour>
    <contour>
      <point x="179" y="694" type="line"/>
      <point x="268" y="694" type="line"/>
      <point x="268" y="1251" type="line"/>
      <point x="179" y="1251" type="line"/>
    </contour>
  </outline>
</glyph>
<glyph name="section" format="1">
  <advance width="919"/>
  <unicode hex="00A7"/>
  <outline>
    <contour>
      <point x="475" y="-161" type="curve" smooth="yes"/>
      <point x="681" y="-161"/>
      <point x="781" y="-54"/>
      <point x="781" y="105" type="curve" smooth="yes"/>
      <point x="781" y="178"/>
      <point x="758" y="232"/>
      <point x="722" y="273" type="curve"/>
      <point x="787.231" y="313.522"/>
      <point x="829.017" y="391.163"/>
      <point x="829.017" y="474.064" type="curve" smooth="yes"/>
      <point x="829.017" y="605.056"/>
      <point x="735.419" y="670.781"/>
      <point x="515" y="786" type="curve" smooth="yes"/>
      <point x="366" y="865"/>
      <point x="295" y="894"/>
      <point x="295" y="1010" type="curve" smooth="yes"/>
      <point x="295" y="1114"/>
      <point x="362" y="1179"/>
      <point x="479" y="1179" type="curve" smooth="yes"/>
      <point x="612" y="1179"/>
      <point x="653" y="1080"/>
      <point x="658" y="973" type="curve"/>
      <point x="723" y="973"/>
      <point x="756" y="1006"/>
      <point x="756" y="1055" type="curve" smooth="yes"/>
      <point x="756" y="1153"/>
      <point x="674" y="1242"/>
      <point x="484" y="1242" type="curve" smooth="yes"/>
      <point x="303" y="1242"/>
      <point x="186" y="1147"/>
      <point x="186" y="1000" type="curve" smooth="yes"/>
      <point x="186" y="904"/>
      <point x="224" y="841"/>
      <point x="280" y="797" type="curve"/>
      <point x="206" y="771"/>
      <point x="150" y="708"/>
      <point x="150" y="623" type="curve" smooth="yes"/>
      <point x="150" y="497"/>
      <point x="216" y="429"/>
      <point x="406" y="335" type="curve" smooth="yes"/>
      <point x="648" y="213"/>
      <point x="686" y="178"/>
      <point x="686" y="77" type="curve" smooth="yes"/>
      <point x="686" y="-30"/>
      <point x="622" y="-99"/>
      <point x="488" y="-99" type="curve" smooth="yes"/>
      <point x="351" y="-99"/>
      <point x="274" y="-27"/>
      <point x="273" y="114" type="curve"/>
      <point x="218" y="114"/>
      <point x="178" y="88"/>
      <point x="178" y="25" type="curve" smooth="yes"/>
      <point x="178" y="-78"/>
      <point x="260" y="-161"/>
    </contour>
    <contour>
      <point x="672" y="316" type="curve"/>
      <point x="626" y="350"/>
      <point x="561" y="384"/>
      <point x="483" y="424" type="curve" smooth="yes"/>
      <point x="308" y="513"/>
      <point x="250" y="546"/>
      <point x="250" y="646" type="curve" smooth="yes"/>
      <point x="250" y="696"/>
      <point x="277" y="739"/>
      <point x="325" y="761" type="curve"/>
      <point x="354" y="740"/>
      <point x="447" y="693"/>
      <point x="488" y="673" type="curve" smooth="yes"/>
      <point x="671" y="578"/>
      <point x="722" y="522"/>
      <point x="722" y="442" type="curve" smooth="yes"/>
      <point x="722" y="391"/>
      <point x="708" y="349"/>
    </contour>
  </outline>
</glyph>
<glyph name="copyright" format="1">
  <advance width="1527"/>
  <unicode hex="00A9"/>
  <outline>
    <contour>
      <point x="771" y="222" type="curve" smooth="yes"/>
      <point x="893" y="222"/>
      <point x="1013" y="278"/>
      <point x="1080" y="367" type="curve"/>
      <point x="1025" y="422" type="line"/>
      <point x="963" y="347"/>
      <point x="874" y="302"/>
      <point x="774" y="302" type="curve" smooth="yes"/>
      <point x="627" y="301"/>
      <point x="507" y="420"/>
      <point x="507" y="593" type="curve" smooth="yes"/>
      <point x="507" y="784"/>
      <point x="644" y="881"/>
      <point x="778" y="881" type="curve" smooth="yes"/>
      <point x="894" y="881"/>
      <point x="974" y="816"/>
      <point x="990" y="714" type="curve"/>
      <point x="1071" y="714" type="line"/>
      <point x="1071" y="942" type="line"/>
      <point x="988" y="942" type="line"/>
      <point x="988" y="862" type="line"/>
      <point x="946" y="927"/>
      <point x="860" y="959"/>
      <point x="768" y="959" type="curve" smooth="yes"/>
      <point x="583" y="959"/>
      <point x="404" y="831"/>
      <point x="404" y="592" type="curve" smooth="yes"/>
      <point x="404" y="372"/>
      <point x="565" y="222"/>
    </contour>
    <contour>
      <point x="762" y="-33" type="curve" smooth="yes"/>
      <point x="1132" y="-33"/>
      <point x="1407" y="231"/>
      <point x="1407" y="592" type="curve" smooth="yes"/>
      <point x="1407" y="952"/>
      <point x="1132" y="1217"/>
      <point x="762" y="1217" type="curve" smooth="yes"/>
      <point x="394" y="1217"/>
      <point x="119" y="952"/>
      <point x="119" y="592" type="curve" smooth="yes"/>
      <point x="119" y="231"/>
      <point x="394" y="-33"/>
    </contour>
    <contour>
      <point x="762" y="52" type="curve" smooth="yes"/>
      <point x="457" y="52"/>
      <point x="228" y="280"/>
      <point x="228" y="590" type="curve" smooth="yes"/>
      <point x="228" y="902"/>
      <point x="457" y="1133"/>
      <point x="762" y="1133" type="curve" smooth="yes"/>
      <point x="1069" y="1133"/>
      <point x="1298" y="902"/>
      <point x="1298" y="590" type="curve" smooth="yes"/>
      <point x="1298" y="281"/>
      <point x="1069" y="52"/>
    </contour>
  </outline>
</glyph>
<glyph name="ordfeminine" format="1">
  <advance width="789"/>
  <unicode hex="00AA"/>
  <outline>
    <contour>
      <point x="313" y="514" type="curve" smooth="yes"/>
      <point x="400" y="514"/>
      <point x="477" y="542"/>
      <point x="531" y="587" type="curve"/>
      <point x="535" y="527" type="line"/>
      <point x="742" y="527" type="line"/>
      <point x="742" y="606" type="line"/>
      <point x="637" y="606" type="line"/>
      <point x="637" y="957" type="line" smooth="yes"/>
      <point x="637" y="1078"/>
      <point x="552" y="1174"/>
      <point x="375" y="1174" type="curve" smooth="yes"/>
      <point x="288" y="1174"/>
      <point x="187" y="1152"/>
      <point x="117" y="1099" type="curve"/>
      <point x="155" y="1026" type="line"/>
      <point x="220" y="1071"/>
      <point x="308" y="1090"/>
      <point x="372" y="1090" type="curve" smooth="yes"/>
      <point x="473" y="1090"/>
      <point x="527" y="1042"/>
      <point x="527" y="947" type="curve" smooth="yes"/>
      <point x="527" y="878" type="line"/>
      <point x="472" y="888"/>
      <point x="414" y="895"/>
      <point x="357" y="895" type="curve" smooth="yes"/>
      <point x="214" y="895"/>
      <point x="92" y="847"/>
      <point x="92" y="701" type="curve" smooth="yes"/>
      <point x="92" y="601"/>
      <point x="169" y="514"/>
    </contour>
    <contour>
      <point x="327" y="591" type="curve" smooth="yes"/>
      <point x="244" y="591"/>
      <point x="199" y="638"/>
      <point x="199" y="706" type="curve" smooth="yes"/>
      <point x="199" y="803"/>
      <point x="278" y="826"/>
      <point x="368" y="826" type="curve" smooth="yes"/>
      <point x="431" y="826"/>
      <point x="484" y="818"/>
      <point x="527" y="810" type="curve"/>
      <point x="527" y="664" type="line"/>
      <point x="472" y="617"/>
      <point x="397" y="591"/>
    </contour>
  </outline>
</glyph>
<glyph name="logicalnot" format="1">
  <advance width="992"/>
  <unicode hex="00AC"/>
  <outline>
    <contour>
      <point x="772" y="318" type="line"/>
      <point x="855" y="318" type="line"/>
      <point x="855" y="764" type="line"/>
      <point x="51" y="764" type="line"/>
      <point x="51" y="670" type="line"/>
      <point x="772" y="670" type="line"/>
    </contour>
  </outline>
</glyph>
<glyph name="uni00AD" format="1">
  <advance width="623"/>
  <unicode hex="00AD"/>
  <outline>
    <contour>
      <point x="74" y="357" type="line"/>
      <point x="549" y="357" type="line"/>
      <point x="549" y="506" type="line"/>
      <point x="74" y="506" type="line"/>
    </contour>
  </outline>
</glyph>
<glyph name="macron" format="1">
  <advance width="357"/>
  <unicode hex="00AF"/>
  <outline>
    <contour>
      <point x="188" y="804" type="move" name="_top"/>
    </contour>
    <contour>
      <point x="179" y="980" type="move" name="_mid"/>
    </contour>
    <contour>
      <point x="-28" y="938" type="line"/>
      <point x="389" y="938" type="line"/>
      <point x="389" y="1018" type="line"/>
      <point x="-28" y="1018" type="line"/>
    </contour>
  </outline>
</glyph>
<glyph name="plusminus" format="1">
  <advance width="980"/>
  <unicode hex="00B1"/>
  <outline>
    <contour>
      <point x="416" y="293" type="line"/>
      <point x="563" y="293" type="line"/>
      <point x="563" y="659" type="line"/>
      <point x="930" y="659" type="line"/>
      <point x="930" y="805" type="line"/>
      <point x="563" y="805" type="line"/>
      <point x="563" y="1171" type="line"/>
      <point x="416" y="1171" type="line"/>
      <point x="416" y="805" type="line"/>
      <point x="51" y="805" type="line"/>
      <point x="51" y="659" type="line"/>
      <point x="416" y="659" type="line"/>
    </contour>
    <contour>
      <point x="51" y="0" type="line"/>
      <point x="930" y="0" type="line"/>
      <point x="930" y="145" type="line"/>
      <point x="51" y="145" type="line"/>
    </contour>
  </outline>
</glyph>
<glyph name="threesuperior" format="1">
  <advance width="971"/>
  <unicode hex="00B3"/>
  <outline>
    <contour>
      <point x="492" y="524" type="curve" smooth="yes"/>
      <point x="669" y="524"/>
      <point x="787" y="616"/>
      <point x="787" y="755" type="curve" smooth="yes"/>
      <point x="787" y="849"/>
      <point x="732" y="931"/>
      <point x="593" y="956" type="curve"/>
      <point x="701" y="974"/>
      <point x="761" y="1049"/>
      <point x="761" y="1140" type="curve" smooth="yes"/>
      <point x="761" y="1272"/>
      <point x="654" y="1354"/>
      <point x="490" y="1354" type="curve" smooth="yes"/>
      <point x="362" y="1354"/>
      <point x="256" y="1294"/>
      <point x="210" y="1199" type="curve"/>
      <point x="286" y="1161" type="line"/>
      <point x="318" y="1233"/>
      <point x="393" y="1277"/>
      <point x="489" y="1277" type="curve" smooth="yes"/>
      <point x="595" y="1277"/>
      <point x="665" y="1220"/>
      <point x="665" y="1137" type="curve" smooth="yes"/>
      <point x="665" y="1045"/>
      <point x="597" y="990"/>
      <point x="438" y="990" type="curve" smooth="yes"/>
      <point x="438" y="914" type="line" smooth="yes"/>
      <point x="611" y="914"/>
      <point x="684" y="862"/>
      <point x="686" y="761" type="curve" smooth="yes"/>
      <point x="689" y="663"/>
      <point x="612" y="601"/>
      <point x="492" y="601" type="curve" smooth="yes"/>
      <point x="391" y="601"/>
      <point x="315" y="649"/>
      <point x="281" y="728" type="curve"/>
      <point x="205" y="685" type="line"/>
      <point x="241" y="587"/>
      <point x="352" y="524"/>
    </contour>
  </outline>
</glyph>
<glyph name="acute" format="1">
  <advance width="381"/>
  <unicode hex="00B4"/>
  <outline>
    <contour>
      <point x="141" y="804" type="move" name="_top"/>
    </contour>
    <contour>
      <point x="208" y="1266" type="line"/>
      <point x="103" y="979" type="line"/>
      <point x="185" y="979" type="line"/>
      <point x="354" y="1266" type="line"/>
    </contour>
  </outline>
</glyph>
<glyph name="paragraph" format="1">
  <advance width="1062"/>
  <unicode hex="00B6"/>
  <outline>
    <contour>
      <point x="498" y="-8" type="line"/>
      <point x="979" y="-8" type="line"/>
      <point x="979" y="87" type="line"/>
      <point x="834" y="87" type="line"/>
      <point x="834" y="1063" type="line"/>
      <point x="982" y="1063" type="line"/>
      <point x="982" y="1152" type="line"/>
      <point x="472" y="1152" type="line"/>
      <point x="223" y="1152"/>
      <point x="119" y="1004"/>
      <point x="119" y="853" type="curve" smooth="yes"/>
      <point x="119" y="698"/>
      <point x="235" y="546"/>
      <point x="455" y="547" type="curve" smooth="yes"/>
      <point x="706" y="547" type="line"/>
      <point x="706" y="87" type="line"/>
      <point x="498" y="87" type="line"/>
    </contour>
    <contour>
      <point x="516" y="647" type="line"/>
      <point x="516" y="1063" type="line"/>
      <point x="706" y="1063" type="line"/>
      <point x="706" y="647" type="line"/>
    </contour>
  </outline>
</glyph>
<glyph name="periodcentered" format="1">
  <advance width="521"/>
  <unicode hex="00B7"/>
  <outline>
    <contour>
      <point x="268" y="461" type="curve" smooth="yes"/>
      <point x="324" y="461"/>
      <point x="367" y="500"/>
      <point x="367" y="553" type="curve" smooth="yes"/>
      <point x="367" y="604"/>
      <point x="324" y="644"/>
      <point x="268" y="644" type="curve" smooth="yes"/>
      <point x="214" y="644"/>
      <point x="172" y="604"/>
      <point x="172" y="553" type="curve" smooth="yes"/>
      <point x="172" y="500"/>
      <point x="214" y="461"/>
    </contour>
  </outline>
</glyph>
<glyph name="cedilla" format="1">
  <advance width="519"/>
  <unicode hex="00B8"/>
  <outline>
    <contour>
      <point x="278" y="-339" type="curve" smooth="yes"/>
      <point x="354" y="-339"/>
      <point x="416" y="-309"/>
      <point x="416" y="-229" type="curve" smooth="yes"/>
      <point x="416" y="-174"/>
      <point x="375" y="-121"/>
      <point x="274" y="-114" type="curve"/>
      <point x="306" y="5" type="line"/>
      <point x="246" y="5" type="line"/>
      <point x="185" y="-156" type="line"/>
      <point x="269" y="-160"/>
      <point x="303" y="-183"/>
      <point x="303" y="-217" type="curve" smooth="yes"/>
      <point x="303" y="-254"/>
      <point x="273" y="-270"/>
      <point x="226" y="-270" type="curve" smooth="yes"/>
      <point x="195" y="-270"/>
      <point x="157" y="-263"/>
      <point x="117" y="-251" type="curve"/>
      <point x="117" y="-303" type="line"/>
      <point x="168" y="-326"/>
      <point x="226" y="-339"/>
    </contour>
  </outline>
</glyph>
<glyph name="guillemotright" format="1">
  <advance width="862"/>
  <unicode hex="00BB"/>
  <outline>
    <contour>
      <point x="83" y="216" type="line"/>
      <point x="177" y="216" type="line"/>
      <point x="468" y="611" type="line"/>
      <point x="177" y="1005" type="line"/>
      <point x="83" y="1005" type="line"/>
      <point x="293" y="612" type="line"/>
    </contour>
    <contour>
      <point x="433" y="216" type="line"/>
      <point x="527" y="216" type="line"/>
      <point x="819" y="611" type="line"/>
      <point x="527" y="1005" type="line"/>
      <point x="433" y="1005" type="line"/>
      <point x="644" y="612" type="line"/>
    </contour>
  </outline>
</glyph>
<glyph name="onequarter" format="1">
  <advance width="2092"/>
  <unicode hex="00BC"/>
  <outline>
    <contour>
      <point x="1502" y="0" type="line"/>
      <point x="1837" y="0" type="line"/>
      <point x="1837" y="100" type="line"/>
      <point x="1741" y="100" type="line"/>
      <point x="1741" y="237" type="line"/>
      <point x="1866" y="237" type="line"/>
      <point x="1866" y="334" type="line"/>
      <point x="1741" y="334" type="line"/>
      <point x="1741" y="818" type="line"/>
      <point x="1615" y="818" type="line"/>
      <point x="1264" y="354" type="line"/>
      <point x="1278" y="237" type="line"/>
      <point x="1612" y="237" type="line"/>
      <point x="1612" y="100" type="line"/>
      <point x="1502" y="100" type="line"/>
    </contour>
    <contour>
      <point x="231" y="334" type="line"/>
      <point x="608" y="334" type="line"/>
      <point x="608" y="434" type="line"/>
      <point x="493" y="434" type="line"/>
      <point x="493" y="1152" type="line"/>
      <point x="222" y="1116" type="line"/>
      <point x="222" y="1017" type="line"/>
      <point x="353" y="1031" type="line"/>
      <point x="353" y="434" type="line"/>
      <point x="231" y="434" type="line"/>
    </contour>
    <contour>
      <point x="574" y="-50" type="line"/>
      <point x="705" y="-50" type="line"/>
      <point x="1529" y="1252" type="line"/>
      <point x="1401" y="1252" type="line"/>
    </contour>
    <contour>
      <point x="1377" y="334" type="line"/>
      <point x="1612" y="649" type="line"/>
      <point x="1612" y="334" type="line"/>
    </contour>
  </outline>
</glyph>
<glyph name="AE" format="1">
  <advance width="2038"/>
  <unicode hex="00C6"/>
  <outline>
    <contour>
      <point x="1202" y="1152" type="move" name="top"/>
    </contour>
    <contour>
      <point x="70" y="0" type="line"/>
      <point x="525" y="0" type="line"/>
      <point x="525" y="94" type="line"/>
      <point x="382" y="94" type="line"/>
      <point x="571" y="424" type="line"/>
      <point x="1003" y="424" type="line"/>
      <point x="1032" y="94" type="line"/>
      <point x="874" y="94" type="line"/>
      <point x="874" y="0" type="line"/>
      <point x="1901" y="0" type="line"/>
      <point x="1872" y="373" type="line"/>
      <point x="1762" y="373" type="line"/>
      <point x="1787" y="94" type="line"/>
      <point x="1174" y="94" type="line"/>
      <point x="1138" y="534" type="line"/>
      <point x="1520" y="534" type="line"/>
      <point x="1538" y="381" type="line"/>
      <point x="1611" y="381" type="line"/>
      <point x="1577" y="776" type="line"/>
      <point x="1503" y="776" type="line"/>
      <point x="1517" y="632" type="line"/>
      <point x="1134" y="632" type="line"/>
      <point x="1097" y="1059" type="line"/>
      <point x="1684" y="1059" type="line"/>
      <point x="1709" y="782" type="line"/>
      <point x="1819" y="782" type="line"/>
      <point x="1792" y="1152" type="line"/>
      <point x="684" y="1152" type="line"/>
      <point x="684" y="1059" type="line"/>
      <point x="813" y="1059" type="line"/>
      <point x="231" y="94" type="line"/>
      <point x="70" y="94" type="line"/>
    </contour>
    <contour>
      <point x="617" y="512" type="line"/>
      <point x="939" y="1059" type="line"/>
      <point x="956" y="1059" type="line"/>
      <point x="1002" y="512" type="line"/>
    </contour>
  </outline>
</glyph>
<glyph name="multiply" format="1">
  <advance width="787"/>
  <unicode hex="00D7"/>
  <outline>
    <contour>
      <point x="638" y="248" type="line"/>
      <point x="703" y="313" type="line"/>
      <point x="462" y="553" type="line"/>
      <point x="706" y="797" type="line"/>
      <point x="643" y="861" type="line"/>
      <point x="396" y="618" type="line"/>
      <point x="154" y="857" type="line"/>
      <point x="89" y="792" type="line"/>
      <point x="331" y="551" type="line"/>
      <point x="86" y="309" type="line"/>
      <point x="149" y="246" type="line"/>
      <point x="395" y="488" type="line"/>
    </contour>
  </outline>
</glyph>
<glyph name="Oslash" format="1">
  <advance width="1450"/>
  <unicode hex="00D8"/>
  <outline>
    <contour>
      <point x="301" y="-77" type="line"/>
      <point x="1273" y="1152" type="line"/>
      <point x="1174" y="1222" type="line"/>
      <point x="202" y="-7" type="line"/>
    </contour>
    <component base="O"/>
  </outline>
</glyph>
<glyph name="Thorn" format="1">
  <advance width="1085"/>
  <unicode hex="00DE"/>
  <outline>
    <contour>
      <point x="510" y="321" type="line"/>
      <point x="655" y="321" type="line" smooth="yes"/>
      <point x="923" y="321"/>
      <point x="1070" y="421"/>
      <point x="1070" y="616" type="curve" smooth="yes"/>
      <point x="1070" y="802"/>
      <point x="923" y="912"/>
      <point x="655" y="912" type="curve" smooth="yes"/>
      <point x="328" y="912" type="line"/>
      <point x="328" y="775" type="line"/>
      <point x="655" y="775" type="line" smooth="yes"/>
      <point x="784" y="775"/>
      <point x="861" y="716"/>
      <point x="861" y="616" type="curve" smooth="yes"/>
      <point x="861" y="501"/>
      <point x="784" y="448"/>
      <point x="655" y="448" type="curve" smooth="yes"/>
      <point x="510" y="448" type="line"/>
    </contour>
    <component base="I"/>
  </outline>
</glyph>
<glyph name="germandbls" format="1">
  <advance width="1143"/>
  <unicode hex="00DF"/>
  <outline>
    <contour>
      <point x="43" y="0" type="line"/>
      <point x="525" y="0" type="line"/>
      <point x="525" y="141" type="line"/>
      <point x="409" y="141" type="line"/>
      <point x="409" y="828" type="line" smooth="yes"/>
      <point x="409" y="982"/>
      <point x="488" y="1079"/>
      <point x="614" y="1079" type="curve" smooth="yes"/>
      <point x="717" y="1079"/>
      <point x="781" y="1018"/>
      <point x="781" y="920" type="curve" smooth="yes"/>
      <point x="781" y="801"/>
      <point x="703" y="726"/>
      <point x="578" y="726" type="curve"/>
      <point x="578" y="586" type="line"/>
      <point x="765" y="586"/>
      <point x="882" y="502"/>
      <point x="882" y="368" type="curve" smooth="yes"/>
      <point x="882" y="229"/>
      <point x="779" y="141"/>
      <point x="616" y="141" type="curve"/>
      <point x="616" y="0" type="line"/>
      <point x="911" y="0"/>
      <point x="1097" y="142"/>
      <point x="1097" y="368" type="curve" smooth="yes"/>
      <point x="1097" y="517"/>
      <point x="986" y="637"/>
      <point x="809" y="678" type="curve"/>
      <point x="916" y="721"/>
      <point x="983" y="819"/>
      <point x="983" y="931" type="curve" smooth="yes"/>
      <point x="983" y="1117"/>
      <point x="841" y="1233"/>
      <point x="614" y="1233" type="curve" smooth="yes"/>
      <point x="357" y="1233"/>
      <point x="196" y="1075"/>
      <point x="196" y="824" type="curve" smooth="yes"/>
      <point x="196" y="141" type="line"/>
      <point x="43" y="141" type="line"/>
    </contour>
  </outline>
</glyph>
<glyph name="eth" format="1">
  <advance width="962"/>
  <unicode hex="00F0"/>
  <outline>
    <contour>
      <point x="482" y="-21" type="curve" smooth="yes"/>
      <point x="712" y="-21"/>
      <point x="887" y="146"/>
      <point x="887" y="399" type="curve" smooth="yes"/>
      <point x="887" y="843"/>
      <point x="496" y="1140"/>
      <point x="215" y="1367" type="curve"/>
      <point x="149" y="1287" type="line"/>
      <point x="361" y="1123"/>
      <point x="596" y="928"/>
      <point x="698" y="712" type="curve"/>
      <point x="662" y="744"/>
      <point x="576" y="792"/>
      <point x="461" y="792" type="curve" smooth="yes"/>
      <point x="259" y="792"/>
      <point x="77" y="630"/>
      <point x="77" y="423" type="curve" smooth="yes"/>
      <point x="77" y="184"/>
      <point x="215" y="-21"/>
    </contour>
    <contour>
      <point x="483" y="84" type="curve" smooth="yes"/>
      <point x="297" y="84"/>
      <point x="202" y="241"/>
      <point x="202" y="406" type="curve" smooth="yes"/>
      <point x="202" y="594"/>
      <point x="327" y="697"/>
      <point x="475" y="697" type="curve" smooth="yes"/>
      <point x="623" y="697"/>
      <point x="766" y="600"/>
      <point x="766" y="401" type="curve" smooth="yes"/>
      <point x="766" y="244"/>
      <point x="685" y="84"/>
    </contour>
    <contour>
      <point x="216" y="891" type="line"/>
      <point x="807" y="1154" type="line"/>
      <point x="766" y="1233" type="line"/>
      <point x="175" y="973" type="line"/>
    </contour>
  </outline>
</glyph>
<glyph name="thorn" format="1">
  <advance width="1084"/>
  <unicode hex="00FE"/>
  <outline>
    <contour>
      <point x="27" y="-353" type="line"/>
      <point x="313" y="-353" type="line"/>
      <point x="315" y="1152" type="line"/>
      <point x="34" y="1152" type="line"/>
      <point x="34" y="1057" type="line"/>
      <point x="183" y="1057" type="line"/>
      <point x="183" y="-257" type="line"/>
      <point x="27" y="-257" type="line"/>
    </contour>
    <component base="lc_bowl_right" xOffset="-19" yOffset="21"/>
  </outline>
</glyph>
<glyph name="Lslash" format="1">
  <advance width="1213"/>
  <unicode hex="0141"/>
  <outline>
    <component base="L"/>
    <contour>
      <point x="126" y="413" type="line"/>
      <point x="613" y="690" type="line"/>
      <point x="613" y="789" type="line"/>
      <point x="126" y="506" type="line"/>
    </contour>
  </outline>
</glyph>
<glyph name="Lslash" format="1">
  <advance width="1213"/>
  <unicode hex="0141"/>
  <outline>
    <contour>
      <point x="126" y="413" type="line"/>
      <point x="613" y="690" type="line"/>
      <point x="613" y="789" type="line"/>
      <point x="126" y="506" type="line"/>
    </contour>
    <component base="L"/>
  </outline>
</glyph>
<glyph name="lslash" format="1">
  <advance width="505"/>
  <unicode hex="0142"/>
  <outline>
    <component base="l"/>
    <contour>
      <point x="50" y="406" type="line"/>
      <point x="482" y="639" type="line"/>
      <point x="482" y="753" type="line"/>
      <point x="49" y="516" type="line"/>
    </contour>
  </outline>
</glyph>
<glyph name="Eng" format="1">
  <advance width="1442"/>
  <unicode hex="014A"/>
  <outline>
    <component base="N"/>
    <contour>
      <point x="815" y="-381" type="line"/>
      <point x="1052" y="-381"/>
      <point x="1230" y="-284"/>
      <point x="1230" y="-25" type="curve" smooth="yes"/>
      <point x="1230" y="200" type="line"/>
      <point x="1118" y="200" type="line"/>
      <point x="1119" y="-36" type="line" smooth="yes"/>
      <point x="1120" y="-204"/>
      <point x="1014" y="-286"/>
      <point x="817" y="-286" type="curve"/>
    </contour>
  </outline>
</glyph>
<glyph name="eng" format="1">
  <advance width="1046"/>
  <unicode hex="014B"/>
  <outline>
    <contour>
      <point x="481" y="-336" type="line"/>
      <point x="718" y="-336"/>
      <point x="895" y="-239"/>
      <point x="895" y="20" type="curve" smooth="yes"/>
      <point x="895" y="562" type="line" smooth="yes"/>
      <point x="895" y="731"/>
      <point x="781" y="826"/>
      <point x="635" y="826" type="curve" smooth="yes"/>
      <point x="514" y="826"/>
      <point x="381" y="757"/>
      <point x="262" y="668" type="curve"/>
      <point x="262" y="575" type="line"/>
      <point x="367" y="656"/>
      <point x="500" y="723"/>
      <point x="603" y="723" type="curve" smooth="yes"/>
      <point x="703" y="723"/>
      <point x="766" y="657"/>
      <point x="766" y="543" type="curve" smooth="yes"/>
      <point x="766" y="9" type="line" smooth="yes"/>
      <point x="766" y="-159"/>
      <point x="679" y="-241"/>
      <point x="482" y="-241" type="curve"/>
    </contour>
    <component base="lc_xheight_stem" xOffset="-73"/>
  </outline>
</glyph>
<glyph name="florin" format="1">
  <advance width="951"/>
  <unicode hex="0192"/>
  <outline>
    <contour>
      <point x="898.18" y="1116.53" type="curve" smooth="yes"/>
      <point x="898.18" y="1176.75"/>
      <point x="833.295" y="1216.02"/>
      <point x="733.605" y="1216.02" type="curve" smooth="yes"/>
      <point x="557.933" y="1216.02"/>
      <point x="493.819" y="1096.93"/>
      <point x="472" y="968" type="curve"/>
      <point x="440" y="792" type="line"/>
      <point x="273" y="792" type="line"/>
      <point x="264" y="715" type="line"/>
      <point x="431" y="715" type="line"/>
      <point x="330" y="47" type="line"/>
      <point x="307.039" y="-121.378"/>
      <point x="247.761" y="-157.372"/>
      <point x="181.755" y="-157.372" type="curve" smooth="yes"/>
      <point x="161.518" y="-157.372"/>
      <point x="140.649" y="-153.989"/>
      <point x="120" y="-150" type="curve"/>
      <point x="110" y="-220" type="line"/>
      <point x="139.739" y="-226.815"/>
      <point x="170.074" y="-231.029"/>
      <point x="199.827" y="-231.029" type="curve" smooth="yes"/>
      <point x="314.142" y="-231.029"/>
      <point x="419.848" y="-168.827"/>
      <point x="450" y="47" type="curve"/>
      <point x="554" y="715" type="line"/>
      <point x="767" y="715" type="line"/>
      <point x="776" y="792" type="line"/>
      <point x="565" y="792" type="line"/>
      <point x="594" y="971" type="line"/>
      <point x="614.519" y="1111.7"/>
      <point x="652.224" y="1154.07"/>
      <point x="706.181" y="1154.07" type="curve" smooth="yes"/>
      <point x="754.921" y="1154.07"/>
      <point x="777.461" y="1115.84"/>
      <point x="777.461" y="1044.83" type="curve" smooth="yes"/>
      <point x="777.461" y="1039.09"/>
      <point x="777.307" y="1033.14"/>
      <point x="777" y="1027" type="curve"/>
      <point x="865.528" y="1027"/>
      <point x="898.18" y="1069.68"/>
    </contour>
  </outline>
</glyph>
<glyph name="circumflex" format="1">
  <advance width="499"/>
  <unicode hex="02C6"/>
  <outline>
    <contour>
      <point x="252" y="804" type="move" name="_top"/>
    </contour>
    <contour>
      <point x="108" y="921" type="line"/>
      <point x="247" y="1180" type="line"/>
      <point x="386" y="921" type="line"/>
      <point x="485" y="921" type="line"/>
      <point x="314" y="1240" type="line"/>
      <point x="179" y="1240" type="line"/>
      <point x="10" y="921" type="line"/>
    </contour>
  </outline>
</glyph>
<glyph name="caron" format="1">
  <advance width="483"/>
  <unicode hex="02C7"/>
  <outline>
    <contour>
      <point x="240" y="804" type="move" name="_top"/>
    </contour>
    <contour>
      <point x="180" y="920" type="line"/>
      <point x="300" y="920" type="line"/>
      <point x="465" y="1228" type="line"/>
      <point x="372" y="1228" type="line"/>
      <point x="240" y="996" type="line"/>
      <point x="105" y="1228" type="line"/>
      <point x="12" y="1228" type="line"/>
    </contour>
  </outline>
</glyph>
<glyph name="ring" format="1">
  <advance width="419"/>
  <unicode hex="02DA"/>
  <outline>
    <contour>
      <point x="208" y="879" type="curve" smooth="yes"/>
      <point x="303" y="879"/>
      <point x="360" y="943"/>
      <point x="360" y="1025" type="curve" smooth="yes"/>
      <point x="360" y="1104"/>
      <point x="304" y="1166"/>
      <point x="208" y="1166" type="curve" smooth="yes"/>
      <point x="111" y="1166"/>
      <point x="56" y="1104"/>
      <point x="56" y="1025" type="curve" smooth="yes"/>
      <point x="56" y="943"/>
      <point x="113" y="879"/>
    </contour>
    <contour>
      <point x="208" y="935" type="curve" smooth="yes"/>
      <point x="151" y="935"/>
      <point x="119" y="973"/>
      <point x="119" y="1024" type="curve" smooth="yes"/>
      <point x="119" y="1073"/>
      <point x="151" y="1110"/>
      <point x="208" y="1110" type="curve" smooth="yes"/>
      <point x="264" y="1110"/>
      <point x="297" y="1073"/>
      <point x="297" y="1024" type="curve" smooth="yes"/>
      <point x="297" y="973"/>
      <point x="264" y="935"/>
    </contour>
  </outline>
</glyph>
<glyph name="ogonek" format="1">
  <advance width="487"/>
  <unicode hex="02DB"/>
  <outline>
    <contour>
      <point x="304" y="-353" type="curve" smooth="yes"/>
      <point x="351" y="-353"/>
      <point x="383" y="-343"/>
      <point x="438" y="-316" type="curve"/>
      <point x="438" y="-213" type="line"/>
      <point x="406" y="-228"/>
      <point x="382" y="-233"/>
      <point x="351" y="-233" type="curve" smooth="yes"/>
      <point x="286" y="-233"/>
      <point x="253" y="-197"/>
      <point x="253" y="-126" type="curve" smooth="yes"/>
      <point x="253" y="-83"/>
      <point x="263" y="-39"/>
      <point x="298" y="9" type="curve"/>
      <point x="184" y="9" type="line"/>
      <point x="136" y="-68"/>
      <point x="124" y="-125"/>
      <point x="124" y="-177" type="curve" smooth="yes"/>
      <point x="124" y="-281"/>
      <point x="200" y="-353"/>
    </contour>
  </outline>
</glyph>
<glyph name="tilde" format="1">
  <advance width="635"/>
  <unicode hex="02DC"/>
  <outline>
    <contour>
      <point x="325" y="804" type="move" name="_top"/>
    </contour>
    <contour>
      <point x="457" y="909" type="curve" smooth="yes"/>
      <point x="567" y="908"/>
      <point x="618" y="1009"/>
      <point x="627" y="1121" type="curve"/>
      <point x="549" y="1121" type="line"/>
      <point x="539" y="1078"/>
      <point x="513" y="1056"/>
      <point x="472" y="1056" type="curve" smooth="yes"/>
      <point x="408" y="1056"/>
      <point x="273" y="1126"/>
      <point x="197" y="1126" type="curve" smooth="yes"/>
      <point x="103" y="1126"/>
      <point x="31" y="1068"/>
      <point x="18" y="917" type="curve"/>
      <point x="98" y="917" type="line"/>
      <point x="106" y="958"/>
      <point x="129" y="979"/>
      <point x="166" y="979" type="curve" smooth="yes"/>
      <point x="237" y="979"/>
      <point x="364" y="909"/>
    </contour>
  </outline>
</glyph>
<glyph name="uni0307" format="1">
  <advance width="450"/>
  <unicode hex="0307"/>
  <outline>
    <contour>
      <point x="227" y="805" type="move" name="_top"/>
    </contour>
    <contour>
      <point x="225" y="949" type="curve" smooth="yes"/>
      <point x="282" y="949"/>
      <point x="314" y="991"/>
      <point x="314" y="1034" type="curve"/>
      <point x="314" y="1082"/>
      <point x="278" y="1118"/>
      <point x="225" y="1118" type="curve" smooth="yes"/>
      <point x="172" y="1118"/>
      <point x="136" y="1079"/>
      <point x="136" y="1034" type="curve" smooth="yes"/>
      <point x="136" y="990"/>
      <point x="173" y="949"/>
    </contour>
  </outline>
</glyph>
<glyph name="Delta" format="1">
  <advance width="1167"/>
  <unicode hex="0394"/>
  <outline>
    <contour>
      <point x="84" y="0" type="line"/>
      <point x="1083" y="0" type="line"/>
      <point x="1083" y="58" type="line"/>
      <point x="637" y="1152" type="line"/>
      <point x="515" y="1152" type="line"/>
      <point x="84" y="58" type="line"/>
    </contour>
    <contour>
      <point x="207" y="96" type="line"/>
      <point x="559" y="1016" type="line"/>
      <point x="922" y="96" type="line"/>
    </contour>
  </outline>
</glyph>
<glyph name="uni03A9" format="1">
  <advance width="1426"/>
  <unicode hex="03A9"/>
  <outline>
    <contour>
      <point x="102" y="0" type="line"/>
      <point x="637" y="0" type="line"/>
      <point x="637" y="134" type="line"/>
      <point x="422" y="226"/>
      <point x="326" y="426"/>
      <point x="326" y="612" type="curve" smooth="yes"/>
      <point x="326" y="820"/>
      <point x="457" y="1009"/>
      <point x="713" y="1009" type="curve" smooth="yes"/>
      <point x="967" y="1009"/>
      <point x="1099" y="819"/>
      <point x="1099" y="611" type="curve" smooth="yes"/>
      <point x="1099" y="426"/>
      <point x="1004" y="226"/>
      <point x="789" y="134" type="curve"/>
      <point x="789" y="0" type="line"/>
      <point x="1324" y="0" type="line"/>
      <point x="1324" y="141" type="line"/>
      <point x="1037" y="141" type="line"/>
      <point x="1235" y="262"/>
      <point x="1324" y="443"/>
      <point x="1324" y="620" type="curve" smooth="yes"/>
      <point x="1324" y="902"/>
      <point x="1096" y="1174"/>
      <point x="713" y="1174" type="curve" smooth="yes"/>
      <point x="332" y="1174"/>
      <point x="102" y="901"/>
      <point x="102" y="618" type="curve" smooth="yes"/>
      <point x="102" y="442"/>
      <point x="192" y="262"/>
      <point x="390" y="141" type="curve"/>
      <point x="102" y="141" type="line"/>
    </contour>
  </outline>
</glyph>
<glyph name="emdash" format="1">
  <advance width="1323"/>
  <unicode hex="2014"/>
  <outline>
    <contour>
      <point x="0" y="453" type="line"/>
      <point x="1323" y="453" type="line"/>
      <point x="1323" y="539" type="line"/>
      <point x="0" y="539" type="line"/>
    </contour>
  </outline>
</glyph>
<glyph name="quoteleft" format="1">
  <advance width="462"/>
  <unicode hex="2018"/>
  <outline>
    <contour>
      <point x="135" y="904" type="line"/>
      <point x="287" y="904" type="line"/>
      <point x="287" y="1062" type="line"/>
      <point x="217" y="1062" type="line"/>
      <point x="218" y="1146"/>
      <point x="231" y="1173"/>
      <point x="296" y="1192" type="curve"/>
      <point x="296" y="1258" type="line"/>
      <point x="174" y="1257"/>
      <point x="135" y="1177"/>
      <point x="135" y="1062" type="curve" smooth="yes"/>
    </contour>
  </outline>
</glyph>
<glyph name="quoteright" format="1">
  <advance width="466"/>
  <unicode hex="2019"/>
  <outline>
    <contour>
      <point x="175" y="883" type="line"/>
      <point x="296" y="885"/>
      <point x="336" y="965"/>
      <point x="336" y="1080" type="curve" smooth="yes"/>
      <point x="336" y="1237" type="line"/>
      <point x="182" y="1237" type="line"/>
      <point x="182" y="1081" type="line"/>
      <point x="254" y="1081" type="line"/>
      <point x="252" y="996"/>
      <point x="241" y="967"/>
      <point x="175" y="950" type="curve"/>
    </contour>
  </outline>
</glyph>
<glyph name="quotesinglbase" format="1">
  <advance width="462"/>
  <unicode hex="201A"/>
  <outline>
    <contour>
      <point x="176" y="-206" type="line"/>
      <point x="297" y="-204"/>
      <point x="336" y="-124"/>
      <point x="336" y="-9" type="curve" smooth="yes"/>
      <point x="336" y="148" type="line"/>
      <point x="183" y="148" type="line"/>
      <point x="183" y="-9" type="line"/>
      <point x="255" y="-9" type="line"/>
      <point x="253" y="-94"/>
      <point x="241" y="-122"/>
      <point x="176" y="-140" type="curve"/>
    </contour>
  </outline>
</glyph>
<glyph name="quotedblleft" format="1">
  <advance width="755"/>
  <unicode hex="201C"/>
  <outline>
    <contour>
      <point x="165" y="904" type="line"/>
      <point x="318" y="904" type="line"/>
      <point x="318" y="1062" type="line"/>
      <point x="248" y="1062" type="line"/>
      <point x="249" y="1146"/>
      <point x="261" y="1173"/>
      <point x="327" y="1192" type="curve"/>
      <point x="327" y="1258" type="line"/>
      <point x="205" y="1257"/>
      <point x="165" y="1177"/>
      <point x="165" y="1062" type="curve" smooth="yes"/>
    </contour>
    <contour>
      <point x="417" y="904" type="line"/>
      <point x="570" y="904" type="line"/>
      <point x="570" y="1062" type="line"/>
      <point x="500" y="1062" type="line"/>
      <point x="501" y="1146"/>
      <point x="514" y="1173"/>
      <point x="579" y="1192" type="curve"/>
      <point x="579" y="1258" type="line"/>
      <point x="457" y="1256"/>
      <point x="417" y="1177"/>
      <point x="417" y="1062" type="curve" smooth="yes"/>
    </contour>
  </outline>
</glyph>
<glyph name="quotedblright" format="1">
  <advance width="754"/>
  <unicode hex="201D"/>
  <outline>
    <contour>
      <point x="182" y="883" type="line"/>
      <point x="303" y="885"/>
      <point x="343" y="965"/>
      <point x="342" y="1080" type="curve" smooth="yes"/>
      <point x="342" y="1237" type="line"/>
      <point x="189" y="1237" type="line"/>
      <point x="189" y="1081" type="line"/>
      <point x="261" y="1081" type="line"/>
      <point x="259" y="996"/>
      <point x="247" y="967"/>
      <point x="182" y="950" type="curve"/>
    </contour>
    <contour>
      <point x="430" y="883" type="line"/>
      <point x="551" y="885"/>
      <point x="591" y="965"/>
      <point x="591" y="1080" type="curve" smooth="yes"/>
      <point x="591" y="1237" type="line"/>
      <point x="437" y="1237" type="line"/>
      <point x="437" y="1081" type="line"/>
      <point x="509" y="1081" type="line"/>
      <point x="507" y="996"/>
      <point x="495" y="967"/>
      <point x="430" y="950" type="curve"/>
    </contour>
  </outline>
</glyph>
<glyph name="bullet" format="1">
  <advance width="651"/>
  <unicode hex="2022"/>
  <outline>
    <contour>
      <point x="326" y="414" type="curve" smooth="yes"/>
      <point x="451" y="414"/>
      <point x="551" y="511"/>
      <point x="551" y="631" type="curve" smooth="yes"/>
      <point x="551" y="753"/>
      <point x="451" y="847"/>
      <point x="326" y="847" type="curve" smooth="yes"/>
      <point x="200" y="847"/>
      <point x="101" y="752"/>
      <point x="101" y="631" type="curve" smooth="yes"/>
      <point x="101" y="512"/>
      <point x="200" y="414"/>
    </contour>
  </outline>
</glyph>
<glyph name="guilsinglleft" format="1">
  <advance width="525"/>
  <unicode hex="2039"/>
  <outline>
    <contour>
      <point x="309" y="216" type="line"/>
      <point x="403" y="216" type="line"/>
      <point x="193" y="612" type="line"/>
      <point x="403" y="1005" type="line"/>
      <point x="309" y="1005" type="line"/>
      <point x="18" y="611" type="line"/>
    </contour>
  </outline>
</glyph>
<glyph name="guilsinglright" format="1">
  <advance width="525"/>
  <unicode hex="203A"/>
  <outline>
    <contour>
      <point x="122" y="216" type="line"/>
      <point x="216" y="216" type="line"/>
      <point x="507" y="612" type="line"/>
      <point x="216" y="1005" type="line"/>
      <point x="122" y="1005" type="line"/>
      <point x="332" y="612" type="line"/>
    </contour>
  </outline>
</glyph>
<glyph name="fraction" format="1">
  <advance width="545"/>
  <unicode hex="2044"/>
  <outline>
    <contour>
      <point x="-88" y="-39" type="line"/>
      <point x="9" y="-39" type="line"/>
      <point x="621" y="1268" type="line"/>
      <point x="528" y="1268" type="line"/>
    </contour>
  </outline>
</glyph>
<glyph name="foursuperior" format="1">
  <advance width="861"/>
  <unicode hex="2074"/>
  <outline>
    <contour>
      <point x="357" y="538" type="line"/>
      <point x="670" y="538" type="line"/>
      <point x="670" y="609" type="line"/>
      <point x="561" y="609" type="line"/>
      <point x="561" y="773" type="line"/>
      <point x="718" y="773" type="line"/>
      <point x="718" y="843" type="line"/>
      <point x="561" y="843" type="line"/>
      <point x="561" y="1336" type="line"/>
      <point x="469" y="1336" type="line"/>
      <point x="108" y="852" type="line"/>
      <point x="121" y="773" type="line"/>
      <point x="472" y="773" type="line"/>
      <point x="472" y="609" type="line"/>
      <point x="357" y="609" type="line"/>
    </contour>
    <contour>
      <point x="202" y="843" type="line"/>
      <point x="472" y="1221" type="line"/>
      <point x="472" y="843" type="line"/>
    </contour>
  </outline>
</glyph>
<glyph name="trademark" format="1">
  <advance width="1720"/>
  <unicode hex="2122"/>
  <outline>
    <contour>
      <point x="799" y="529" type="line"/>
      <point x="1026" y="529" type="line"/>
      <point x="1026" y="597" type="line"/>
      <point x="948" y="597" type="line"/>
      <point x="948" y="1026" type="line"/>
      <point x="1164" y="553" type="line"/>
      <point x="1192" y="553" type="line"/>
      <point x="1399" y="1025" type="line"/>
      <point x="1399" y="597" type="line"/>
      <point x="1323" y="597" type="line"/>
      <point x="1323" y="529" type="line"/>
      <point x="1561" y="529" type="line"/>
      <point x="1561" y="597" type="line"/>
      <point x="1483" y="597" type="line"/>
      <point x="1483" y="1084" type="line"/>
      <point x="1561" y="1084" type="line"/>
      <point x="1561" y="1152" type="line"/>
      <point x="1373" y="1152" type="line"/>
      <point x="1179" y="697" type="line"/>
      <point x="981" y="1152" type="line"/>
      <point x="799" y="1152" type="line"/>
      <point x="799" y="1084" type="line"/>
      <point x="877" y="1084" type="line"/>
      <point x="877" y="597" type="line"/>
      <point x="799" y="597" type="line"/>
    </contour>
    <contour>
      <point x="287" y="529" type="line"/>
      <point x="545" y="529" type="line"/>
      <point x="545" y="596" type="line"/>
      <point x="460" y="596" type="line"/>
      <point x="460" y="1082" type="line"/>
      <point x="618" y="1082" type="line"/>
      <point x="618" y="922" type="line"/>
      <point x="690" y="922" type="line"/>
      <point x="690" y="1152" type="line"/>
      <point x="144" y="1152" type="line"/>
      <point x="144" y="922" type="line"/>
      <point x="216" y="922" type="line"/>
      <point x="216" y="1082" type="line"/>
      <point x="373" y="1082" type="line"/>
      <point x="373" y="596" type="line"/>
      <point x="287" y="596" type="line"/>
    </contour>
  </outline>
</glyph>
<glyph name="estimated" format="1">
  <advance width="891"/>
  <unicode hex="212E"/>
  <outline>
    <contour>
      <point x="562" y="-17" type="curve" smooth="yes"/>
      <point x="702" y="-17"/>
      <point x="830" y="38"/>
      <point x="928" y="127" type="curve"/>
      <point x="902" y="158" type="line"/>
      <point x="807" y="79"/>
      <point x="698" y="34"/>
      <point x="586" y="36" type="curve" smooth="yes"/>
      <point x="409" y="40"/>
      <point x="286" y="181"/>
      <point x="273" y="397" type="curve"/>
      <point x="924" y="397" type="line"/>
      <point x="924" y="659"/>
      <point x="792" y="823"/>
      <point x="543" y="823" type="curve" smooth="yes"/>
      <point x="291" y="823"/>
      <point x="122" y="663"/>
      <point x="122" y="413" type="curve" smooth="yes"/>
      <point x="122" y="141"/>
      <point x="322" y="-18"/>
    </contour>
    <contour>
      <point x="275" y="447" type="line"/>
      <point x="281" y="661"/>
      <point x="409" y="793"/>
      <point x="562" y="792" type="curve" smooth="yes"/>
      <point x="707" y="792"/>
      <point x="835" y="664"/>
      <point x="840" y="447" type="curve"/>
    </contour>
  </outline>
</glyph>
<glyph name="emptyset" format="1">
  <advance width="1348"/>
  <unicode hex="2205"/>
  <outline>
    <contour>
      <point x="236" y="-54" type="line"/>
      <point x="349" y="79" type="line"/>
      <point x="441" y="15"/>
      <point x="553" y="-22"/>
      <point x="674" y="-22" type="curve" smooth="yes"/>
      <point x="977" y="-22"/>
      <point x="1224" y="222"/>
      <point x="1224" y="525" type="curve" smooth="yes"/>
      <point x="1224" y="678"/>
      <point x="1161" y="816"/>
      <point x="1059" y="916" type="curve"/>
      <point x="1177" y="1055" type="line"/>
      <point x="1128" y="1099" type="line"/>
      <point x="1009" y="959" type="line"/>
      <point x="916" y="1030"/>
      <point x="800" y="1073"/>
      <point x="674" y="1073" type="curve" smooth="yes"/>
      <point x="372" y="1073"/>
      <point x="124" y="841"/>
      <point x="124" y="525" type="curve" smooth="yes"/>
      <point x="124" y="359"/>
      <point x="192" y="216"/>
      <point x="299" y="119" type="curve"/>
      <point x="189" y="-11" type="line"/>
    </contour>
    <contour>
      <point x="350" y="179" type="line"/>
      <point x="260" y="263"/>
      <point x="205" y="385"/>
      <point x="205" y="524" type="curve"/>
      <point x="205" y="793"/>
      <point x="411" y="999"/>
      <point x="674" y="999" type="curve" smooth="yes"/>
      <point x="782" y="999"/>
      <point x="881" y="961"/>
      <point x="960" y="900" type="curve"/>
    </contour>
    <contour>
      <point x="673" y="52" type="curve" smooth="yes"/>
      <point x="570" y="52"/>
      <point x="476" y="83"/>
      <point x="399" y="138" type="curve"/>
      <point x="1009" y="856" type="line"/>
      <point x="1092" y="770"/>
      <point x="1144" y="652"/>
      <point x="1144" y="524" type="curve" smooth="yes"/>
      <point x="1144" y="269"/>
      <point x="936" y="52"/>
    </contour>
  </outline>
</glyph>
<glyph name="uni2206" format="1">
  <advance width="947"/>
  <unicode hex="2206"/>
  <outline>
    <contour>
      <point x="73" y="0" type="line"/>
      <point x="883" y="0" type="line"/>
      <point x="883" y="86" type="line"/>
      <point x="550" y="1090" type="line"/>
      <point x="413" y="1090" type="line"/>
      <point x="73" y="80" type="line"/>
    </contour>
    <contour>
      <point x="166" y="93" type="line"/>
      <point x="166" y="93"/>
      <point x="438" y="928"/>
      <point x="448" y="972" type="curve"/>
      <point x="458" y="927"/>
      <point x="728" y="93"/>
      <point x="728" y="93" type="curve"/>
    </contour>
  </outline>
</glyph>
<glyph name="product" format="1">
  <advance width="1401"/>
  <unicode hex="220F"/>
  <outline>
    <contour>
      <point x="118" y="0" type="line"/>
      <point x="562" y="0" type="line"/>
      <point x="562" y="95" type="line"/>
      <point x="411" y="95" type="line"/>
      <point x="411" y="1058" type="line"/>
      <point x="991" y="1058" type="line"/>
      <point x="991" y="95" type="line"/>
      <point x="839" y="95" type="line"/>
      <point x="839" y="0" type="line"/>
      <point x="1283" y="0" type="line"/>
      <point x="1283" y="95" type="line"/>
      <point x="1132" y="95" type="line"/>
      <point x="1132" y="1058" type="line"/>
      <point x="1283" y="1058" type="line"/>
      <point x="1283" y="1152" type="line"/>
      <point x="118" y="1152" type="line"/>
      <point x="118" y="1058" type="line"/>
      <point x="270" y="1058" type="line"/>
      <point x="270" y="95" type="line"/>
      <point x="118" y="95" type="line"/>
    </contour>
  </outline>
</glyph>
<glyph name="minus" format="1">
  <advance width="922"/>
  <unicode hex="2212"/>
  <outline>
    <contour>
      <point x="97" y="492" type="line"/>
      <point x="825" y="492" type="line"/>
      <point x="825" y="591" type="line"/>
      <point x="97" y="591" type="line"/>
    </contour>
  </outline>
</glyph>
<glyph name="radical" format="1">
  <advance width="1148"/>
  <unicode hex="221A"/>
  <outline>
    <contour>
      <point x="471" y="-14" type="line"/>
      <point x="569" y="-14" type="line"/>
      <point x="1027" y="1363" type="line"/>
      <point x="940" y="1363" type="line"/>
      <point x="532" y="142" type="line"/>
      <point x="308" y="660" type="line"/>
      <point x="27" y="660" type="line"/>
      <point x="27" y="576" type="line"/>
      <point x="203" y="576" type="line"/>
    </contour>
  </outline>
</glyph>
<glyph name="infinity" format="1">
  <advance width="1443"/>
  <unicode hex="221E"/>
  <outline>
    <contour>
      <point x="1019" y="235" type="curve" smooth="yes"/>
      <point x="1172" y="235"/>
      <point x="1300" y="372"/>
      <point x="1300" y="569" type="curve" smooth="yes"/>
      <point x="1300" y="780"/>
      <point x="1174" y="903"/>
      <point x="1020" y="903" type="curve" smooth="yes"/>
      <point x="896" y="903"/>
      <point x="801" y="830"/>
      <point x="727" y="692" type="curve"/>
      <point x="648" y="847"/>
      <point x="529" y="908"/>
      <point x="428" y="908" type="curve" smooth="yes"/>
      <point x="253" y="908"/>
      <point x="143" y="757"/>
      <point x="143" y="574" type="curve" smooth="yes"/>
      <point x="143" y="379"/>
      <point x="249" y="240"/>
      <point x="428" y="240" type="curve" smooth="yes"/>
      <point x="534" y="240"/>
      <point x="638" y="308"/>
      <point x="716" y="457" type="curve"/>
      <point x="801" y="295"/>
      <point x="908" y="235"/>
    </contour>
    <contour>
      <point x="426" y="331" type="curve" smooth="yes"/>
      <point x="302" y="331"/>
      <point x="241" y="440"/>
      <point x="241" y="573" type="curve" smooth="yes"/>
      <point x="241" y="697"/>
      <point x="306" y="817"/>
      <point x="423" y="817" type="curve" smooth="yes"/>
      <point x="525" y="817"/>
      <point x="602" y="732"/>
      <point x="670" y="574" type="curve"/>
      <point x="594" y="407"/>
      <point x="516" y="331"/>
    </contour>
    <contour>
      <point x="1018" y="327" type="curve" smooth="yes"/>
      <point x="914" y="327"/>
      <point x="844" y="401"/>
      <point x="772" y="569" type="curve"/>
      <point x="847" y="731"/>
      <point x="919" y="811"/>
      <point x="1016" y="811" type="curve" smooth="yes"/>
      <point x="1128" y="811"/>
      <point x="1202" y="706"/>
      <point x="1202" y="571" type="curve" smooth="yes"/>
      <point x="1202" y="430"/>
      <point x="1128" y="327"/>
    </contour>
  </outline>
</glyph>
<glyph name="integral" format="1">
  <advance width="798"/>
  <unicode hex="222B"/>
  <outline>
    <contour>
      <point x="132" y="-231" type="curve" smooth="yes"/>
      <point x="324" y="-231"/>
      <point x="370" y="-91"/>
      <point x="388" y="43" type="curve" smooth="yes"/>
      <point x="520" y="971" type="line" smooth="yes"/>
      <point x="538" y="1114"/>
      <point x="581" y="1156"/>
      <point x="637" y="1154" type="curve" smooth="yes"/>
      <point x="685" y="1153"/>
      <point x="708" y="1107"/>
      <point x="704" y="1027" type="curve"/>
      <point x="791" y="1027"/>
      <point x="820" y="1069"/>
      <point x="824" y="1111" type="curve" smooth="yes"/>
      <point x="829" y="1173"/>
      <point x="765" y="1215"/>
      <point x="664" y="1216" type="curve" smooth="yes"/>
      <point x="485" y="1218"/>
      <point x="416" y="1099"/>
      <point x="398" y="968" type="curve" smooth="yes"/>
      <point x="263" y="14" type="line" smooth="yes"/>
      <point x="246" y="-122"/>
      <point x="213" y="-170"/>
      <point x="161" y="-170" type="curve" smooth="yes"/>
      <point x="112" y="-170"/>
      <point x="85" y="-130"/>
      <point x="90" y="-38" type="curve"/>
      <point x="2" y="-38"/>
      <point x="-27" y="-79"/>
      <point x="-30" y="-120" type="curve" smooth="yes"/>
      <point x="-35" y="-183"/>
      <point x="24" y="-231"/>
    </contour>
  </outline>
</glyph>
<glyph name="notequal" format="1">
  <advance width="990"/>
  <unicode hex="2260"/>
  <outline>
    <contour>
      <point x="341" y="39" type="line"/>
      <point x="436" y="39" type="line"/>
      <point x="487" y="237" type="line"/>
      <point x="887" y="237" type="line"/>
      <point x="887" y="328" type="line"/>
      <point x="511" y="328" type="line"/>
      <point x="570" y="545" type="line"/>
      <point x="877" y="545" type="line"/>
      <point x="877" y="639" type="line"/>
      <point x="595" y="639" type="line"/>
      <point x="649" y="836" type="line"/>
      <point x="556" y="836" type="line"/>
      <point x="502" y="639" type="line"/>
      <point x="102" y="639" type="line"/>
      <point x="102" y="545" type="line"/>
      <point x="475" y="545" type="line"/>
      <point x="417" y="328" type="line"/>
      <point x="112" y="328" type="line"/>
      <point x="112" y="237" type="line"/>
      <point x="392" y="237" type="line"/>
    </contour>
  </outline>
</glyph>
<glyph name="lessequal" format="1">
  <advance width="1034"/>
  <unicode hex="2264"/>
  <outline>
    <contour>
      <point x="907" y="213" type="line"/>
      <point x="907" y="375" type="line"/>
      <point x="247" y="731" type="line"/>
      <point x="907" y="1092" type="line"/>
      <point x="907" y="1253" type="line"/>
      <point x="28" y="774" type="line"/>
      <point x="28" y="690" type="line"/>
    </contour>
    <contour>
      <point x="28" y="0" type="line"/>
      <point x="907" y="0" type="line"/>
      <point x="907" y="145" type="line"/>
      <point x="28" y="145" type="line"/>
    </contour>
  </outline>
</glyph>
<glyph name="greaterequal" format="1">
  <advance width="1035"/>
  <unicode hex="2265"/>
  <outline>
    <contour>
      <point x="128" y="213" type="line"/>
      <point x="1007" y="690" type="line"/>
      <point x="1007" y="774" type="line"/>
      <point x="128" y="1253" type="line"/>
      <point x="128" y="1092" type="line"/>
      <point x="788" y="731" type="line"/>
      <point x="128" y="375" type="line"/>
    </contour>
    <contour>
      <point x="128" y="0" type="line"/>
      <point x="1007" y="0" type="line"/>
      <point x="1007" y="145" type="line"/>
      <point x="128" y="145" type="line"/>
    </contour>
  </outline>
</glyph>
<glyph name="fi" format="1">
  <advance width="1144"/>
  <unicode hex="FB01"/>
  <outline>
    <contour>
      <point x="106" y="0" type="line"/>
      <point x="564" y="0" type="line"/>
      <point x="564" y="93" type="line"/>
      <point x="381" y="93" type="line"/>
      <point x="381" y="711" type="line"/>
      <point x="843" y="711" type="line"/>
      <point x="843" y="93" type="line"/>
      <point x="695" y="93" type="line"/>
      <point x="695" y="0" type="line"/>
      <point x="1114" y="0" type="line"/>
      <point x="1114" y="93" type="line"/>
      <point x="973" y="93" type="line"/>
      <point x="973" y="804" type="line"/>
      <point x="381" y="804" type="line"/>
      <point x="381" y="922" type="line" smooth="yes"/>
      <point x="381" y="1099"/>
      <point x="487" y="1174"/>
      <point x="648" y="1174" type="curve" smooth="yes"/>
      <point x="721" y="1174"/>
      <point x="808" y="1155"/>
      <point x="842" y="1114" type="curve"/>
      <point x="824" y="1103"/>
      <point x="816" y="1082"/>
      <point x="816" y="1062" type="curve" smooth="yes"/>
      <point x="816" y="1016"/>
      <point x="854" y="982"/>
      <point x="904" y="982" type="curve" smooth="yes"/>
      <point x="955" y="982"/>
      <point x="991" y="1018"/>
      <point x="991" y="1067" type="curve" smooth="yes"/>
      <point x="991" y="1180"/>
      <point x="835" y="1254"/>
      <point x="650" y="1254" type="curve" smooth="yes"/>
      <point x="421" y="1254"/>
      <point x="251" y="1149"/>
      <point x="251" y="923" type="curve" smooth="yes"/>
      <point x="251" y="804" type="line"/>
      <point x="102" y="804" type="line"/>
      <point x="102" y="711" type="line"/>
      <point x="251" y="711" type="line"/>
      <point x="251" y="93" type="line"/>
      <point x="106" y="93" type="line"/>
    </contour>
  </outline>
</glyph>
<glyph name="fl" format="1">
  <advance width="1236"/>
  <unicode hex="FB02"/>
  <outline>
    <contour>
      <point x="106" y="0" type="line"/>
      <point x="564" y="0" type="line"/>
      <point x="564" y="93" type="line"/>
      <point x="381" y="93" type="line"/>
      <point x="381" y="711" type="line"/>
      <point x="570" y="711" type="line"/>
      <point x="570" y="804" type="line"/>
      <point x="381" y="804" type="line"/>
      <point x="381" y="956" type="line" smooth="yes"/>
      <point x="381" y="1082"/>
      <point x="521" y="1147"/>
      <point x="677" y="1147" type="curve" smooth="yes"/>
      <point x="786" y="1147"/>
      <point x="864" y="1122"/>
      <point x="864" y="1081" type="curve" smooth="yes"/>
      <point x="864" y="93" type="line" smooth="yes"/>
      <point x="864" y="57"/>
      <point x="896" y="0"/>
      <point x="939" y="0" type="curve" smooth="yes"/>
      <point x="1169" y="0" type="line"/>
      <point x="1169" y="93" type="line"/>
      <point x="994" y="93" type="line"/>
      <point x="994" y="1111" type="line" smooth="yes"/>
      <point x="994" y="1200"/>
      <point x="858" y="1253"/>
      <point x="684" y="1253" type="curve" smooth="yes"/>
      <point x="457" y="1253"/>
      <point x="251" y="1153"/>
      <point x="251" y="949" type="curve" smooth="yes"/>
      <point x="251" y="804" type="line"/>
      <point x="102" y="804" type="line"/>
      <point x="102" y="711" type="line"/>
      <point x="251" y="711" type="line"/>
      <point x="251" y="93" type="line"/>
      <point x="106" y="93" type="line"/>
    </contour>
  </outline>
</glyph>
<glyph name="uniFB03" format="1">
  <advance width="1848"/>
  <unicode hex="FB03"/>
  <outline>
    <contour>
      <point x="81" y="0" type="line"/>
      <point x="607" y="0" type="line"/>
      <point x="607" y="141" type="line"/>
      <point x="432" y="141" type="line"/>
      <point x="432" y="664" type="line"/>
      <point x="814" y="664" type="line"/>
      <point x="814" y="804" type="line"/>
      <point x="432" y="804" type="line"/>
      <point x="432" y="970" type="line" smooth="yes"/>
      <point x="432" y="1064"/>
      <point x="519" y="1114"/>
      <point x="624" y="1114" type="curve" smooth="yes"/>
      <point x="706" y="1114"/>
      <point x="799" y="1084"/>
      <point x="872" y="1021" type="curve"/>
      <point x="1004" y="1041" type="line"/>
      <point x="923" y="1178"/>
      <point x="759" y="1242"/>
      <point x="602" y="1242" type="curve" smooth="yes"/>
      <point x="412" y="1242"/>
      <point x="234" y="1147"/>
      <point x="234" y="973" type="curve" smooth="yes"/>
      <point x="234" y="804" type="line"/>
      <point x="77" y="804" type="line"/>
      <point x="77" y="664" type="line"/>
      <point x="234" y="664" type="line"/>
      <point x="234" y="141" type="line"/>
      <point x="81" y="141" type="line"/>
    </contour>
    <component base="uniFB01" xOffset="630"/>
  </outline>
</glyph>
<glyph name="uniFB04" format="1">
  <advance width="1748"/>
  <unicode hex="FB04"/>
  <outline>
    <contour>
      <point x="86" y="0" type="line"/>
      <point x="511" y="0" type="line"/>
      <point x="511" y="93" type="line"/>
      <point x="355" y="93" type="line"/>
      <point x="355" y="711" type="line"/>
      <point x="734" y="711" type="line"/>
      <point x="734" y="804" type="line"/>
      <point x="355" y="804" type="line"/>
      <point x="355" y="970" type="line" smooth="yes"/>
      <point x="355" y="1080"/>
      <point x="453" y="1134"/>
      <point x="585" y="1134" type="curve" smooth="yes"/>
      <point x="681" y="1134"/>
      <point x="797" y="1096"/>
      <point x="876" y="1035" type="curve"/>
      <point x="917" y="1106" type="line"/>
      <point x="824" y="1183"/>
      <point x="690" y="1226"/>
      <point x="569" y="1226" type="curve" smooth="yes"/>
      <point x="380" y="1226"/>
      <point x="224" y="1140"/>
      <point x="224" y="975" type="curve" smooth="yes"/>
      <point x="224" y="804" type="line"/>
      <point x="82" y="804" type="line"/>
      <point x="82" y="711" type="line"/>
      <point x="224" y="711" type="line"/>
      <point x="224" y="93" type="line"/>
      <point x="86" y="93" type="line"/>
    </contour>
    <contour>
      <point x="625" y="0" type="line"/>
      <point x="1083" y="0" type="line"/>
      <point x="1083" y="93" type="line"/>
      <point x="900" y="93" type="line"/>
      <point x="900" y="711" type="line"/>
      <point x="1089" y="711" type="line"/>
      <point x="1089" y="804" type="line"/>
      <point x="900" y="804" type="line"/>
      <point x="900" y="956" type="line" smooth="yes"/>
      <point x="900" y="1082"/>
      <point x="1040" y="1147"/>
      <point x="1196" y="1147" type="curve" smooth="yes"/>
      <point x="1305" y="1147"/>
      <point x="1383" y="1122"/>
      <point x="1383" y="1081" type="curve" smooth="yes"/>
      <point x="1383" y="93" type="line" smooth="yes"/>
      <point x="1383" y="57"/>
      <point x="1415" y="0"/>
      <point x="1458" y="0" type="curve" smooth="yes"/>
      <point x="1688" y="0" type="line"/>
      <point x="1688" y="93" type="line"/>
      <point x="1513" y="93" type="line"/>
      <point x="1513" y="1111" type="line" smooth="yes"/>
      <point x="1513" y="1200"/>
      <point x="1377" y="1253"/>
      <point x="1203" y="1253" type="curve" smooth="yes"/>
      <point x="976" y="1253"/>
      <point x="770" y="1153"/>
      <point x="770" y="949" type="curve" smooth="yes"/>
      <point x="770" y="804" type="line"/>
      <point x="621" y="804" type="line"/>
      <point x="621" y="711" type="line"/>
      <point x="770" y="711" type="line"/>
      <point x="770" y="93" type="line"/>
      <point x="625" y="93" type="line"/>
    </contour>
  </outline>
</glyph>
<glyph name="f_j" format="1">
  <advance width="1270"/>
  <outline>
    <contour>
      <point x="1046" y="804" type="line"/>
      <point x="424" y="804" type="line"/>
      <point x="424" y="898" type="line" smooth="yes"/>
      <point x="424" y="1112"/>
      <point x="517" y="1181"/>
      <point x="652" y="1181" type="curve" smooth="yes"/>
      <point x="731" y="1181"/>
      <point x="807" y="1157"/>
      <point x="850" y="1124" type="curve"/>
      <point x="840" y="1108"/>
      <point x="834" y="1089"/>
      <point x="834" y="1069" type="curve" smooth="yes"/>
      <point x="834" y="1008"/>
      <point x="884" y="961"/>
      <point x="947" y="961" type="curve" smooth="yes"/>
      <point x="1012" y="961"/>
      <point x="1062" y="1008"/>
      <point x="1062" y="1069" type="curve" smooth="yes"/>
      <point x="1062" y="1204"/>
      <point x="861" y="1294"/>
      <point x="651" y="1294" type="curve" smooth="yes"/>
      <point x="419" y="1294"/>
      <point x="226" y="1184"/>
      <point x="226" y="901" type="curve" smooth="yes"/>
      <point x="226" y="804" type="line"/>
      <point x="96" y="804" type="line"/>
      <point x="96" y="664" type="line"/>
      <point x="226" y="664" type="line"/>
      <point x="226" y="140" type="line"/>
      <point x="100" y="140" type="line"/>
      <point x="100" y="0" type="line"/>
      <point x="592" y="0" type="line"/>
      <point x="592" y="140" type="line"/>
      <point x="424" y="140" type="line"/>
      <point x="424" y="664" type="line"/>
      <point x="848" y="664" type="line"/>
      <point x="848" y="-13" type="line" smooth="yes"/>
      <point x="848" y="-134"/>
      <point x="819" y="-186"/>
      <point x="715" y="-186" type="curve" smooth="yes"/>
      <point x="619" y="-186" type="line"/>
      <point x="619" y="-342" type="line"/>
      <point x="715" y="-342" type="line" smooth="yes"/>
      <point x="1019" y="-342"/>
      <point x="1046" y="-184"/>
      <point x="1046" y="47" type="curve" smooth="yes"/>
    </contour>
  </outline>
</glyph>
<glyph name="ff" format="1">
  <advance width="1296"/>
  <outline>
    <contour>
      <point x="688" y="0" type="line"/>
      <point x="1135" y="0" type="line"/>
      <point x="1135" y="93" type="line"/>
      <point x="956" y="93" type="line"/>
      <point x="956" y="711" type="line"/>
      <point x="1154" y="711" type="line"/>
      <point x="1154" y="804" type="line"/>
      <point x="956" y="804" type="line"/>
      <point x="956" y="988" type="line" smooth="yes"/>
      <point x="956" y="1080"/>
      <point x="998" y="1121"/>
      <point x="1050" y="1121" type="curve" smooth="yes"/>
      <point x="1108" y="1121"/>
      <point x="1143" y="1089"/>
      <point x="1154" y="1009" type="curve"/>
      <point x="1254" y="1038" type="line"/>
      <point x="1243" y="1177"/>
      <point x="1142" y="1215"/>
      <point x="1047" y="1215" type="curve" smooth="yes"/>
      <point x="909" y="1215"/>
      <point x="826" y="1128"/>
      <point x="826" y="987" type="curve" smooth="yes"/>
      <point x="826" y="804" type="line"/>
      <point x="505" y="804" type="line"/>
      <point x="505" y="711" type="line"/>
      <point x="826" y="711" type="line"/>
      <point x="826" y="93" type="line"/>
      <point x="688" y="93" type="line"/>
    </contour>
    <component base="f"/>
  </outline>
</glyph>
<glyph name="ffi" format="1">
  <advance width="1728"/>
  <outline>
    <contour>
      <point x="127" y="0" type="line"/>
      <point x="552" y="0" type="line"/>
      <point x="552" y="93" type="line"/>
      <point x="395" y="93" type="line"/>
      <point x="395" y="711" type="line"/>
      <point x="775" y="711" type="line"/>
      <point x="775" y="804" type="line"/>
      <point x="395" y="804" type="line"/>
      <point x="395" y="970" type="line" smooth="yes"/>
      <point x="395" y="1080"/>
      <point x="494" y="1134"/>
      <point x="626" y="1134" type="curve" smooth="yes"/>
      <point x="722" y="1134"/>
      <point x="838" y="1096"/>
      <point x="916" y="1035" type="curve"/>
      <point x="958" y="1106" type="line"/>
      <point x="865" y="1183"/>
      <point x="731" y="1226"/>
      <point x="610" y="1226" type="curve" smooth="yes"/>
      <point x="421" y="1226"/>
      <point x="265" y="1140"/>
      <point x="265" y="975" type="curve" smooth="yes"/>
      <point x="265" y="804" type="line"/>
      <point x="122" y="804" type="line"/>
      <point x="122" y="711" type="line"/>
      <point x="265" y="711" type="line"/>
      <point x="265" y="93" type="line"/>
      <point x="127" y="93" type="line"/>
    </contour>
    <component base="fi" xOffset="591"/>
  </outline>
</glyph>
<glyph name="ffl" format="1">
  <advance width="1784"/>
  <outline>
    <contour>
      <point x="100" y="0" type="line"/>
      <point x="525" y="0" type="line"/>
      <point x="525" y="93" type="line"/>
      <point x="369" y="93" type="line"/>
      <point x="369" y="711" type="line"/>
      <point x="748" y="711" type="line"/>
      <point x="748" y="804" type="line"/>
      <point x="369" y="804" type="line"/>
      <point x="369" y="970" type="line" smooth="yes"/>
      <point x="369" y="1080"/>
      <point x="467" y="1134"/>
      <point x="599" y="1134" type="curve" smooth="yes"/>
      <point x="695" y="1134"/>
      <point x="811" y="1096"/>
      <point x="890" y="1035" type="curve"/>
      <point x="931" y="1106" type="line"/>
      <point x="838" y="1183"/>
      <point x="704" y="1226"/>
      <point x="583" y="1226" type="curve" smooth="yes"/>
      <point x="394" y="1226"/>
      <point x="238" y="1140"/>
      <point x="238" y="975" type="curve" smooth="yes"/>
      <point x="238" y="804" type="line"/>
      <point x="96" y="804" type="line"/>
      <point x="96" y="711" type="line"/>
      <point x="238" y="711" type="line"/>
      <point x="238" y="93" type="line"/>
      <point x="100" y="93" type="line"/>
    </contour>
    <component base="fl" xOffset="533"/>
  </outline>
</glyph>
<glyph name="fj" format="1">
  <advance width="1134"/>
  <outline>
    <contour>
      <point x="644" y="-297" type="line"/>
      <point x="729" y="-297" type="line" smooth="yes"/>
      <point x="986" y="-297"/>
      <point x="990" y="-147"/>
      <point x="990" y="11" type="curve" smooth="yes"/>
      <point x="990" y="804" type="line"/>
      <point x="381" y="804" type="line"/>
      <point x="381" y="922" type="line" smooth="yes"/>
      <point x="381" y="1099"/>
      <point x="487" y="1174"/>
      <point x="648" y="1174" type="curve" smooth="yes"/>
      <point x="721" y="1174"/>
      <point x="808" y="1155"/>
      <point x="842" y="1114" type="curve"/>
      <point x="824" y="1103"/>
      <point x="816" y="1082"/>
      <point x="816" y="1062" type="curve" smooth="yes"/>
      <point x="816" y="1016"/>
      <point x="854" y="982"/>
      <point x="904" y="982" type="curve" smooth="yes"/>
      <point x="955" y="982"/>
      <point x="991" y="1018"/>
      <point x="991" y="1067" type="curve" smooth="yes"/>
      <point x="991" y="1180"/>
      <point x="835" y="1254"/>
      <point x="650" y="1254" type="curve" smooth="yes"/>
      <point x="421" y="1254"/>
      <point x="251" y="1149"/>
      <point x="251" y="923" type="curve" smooth="yes"/>
      <point x="251" y="804" type="line"/>
      <point x="102" y="804" type="line"/>
      <point x="102" y="711" type="line"/>
      <point x="251" y="711" type="line"/>
      <point x="251" y="93" type="line"/>
      <point x="106" y="93" type="line"/>
      <point x="106" y="0" type="line"/>
      <point x="564" y="0" type="line"/>
      <point x="564" y="93" type="line"/>
      <point x="381" y="93" type="line"/>
      <point x="381" y="711" type="line"/>
      <point x="859" y="711" type="line"/>
      <point x="859" y="-24" type="line" smooth="yes"/>
      <point x="859" y="-142"/>
      <point x="846" y="-196"/>
      <point x="725" y="-196" type="curve" smooth="yes"/>
      <point x="644" y="-196" type="line"/>
    </contour>
  </outline>
</glyph>
<glyph name="lc_ascender_stem_1" format="1">
  <advance width="942"/>
  <outline>
    <contour>
      <point x="106" y="0" type="line"/>
      <point x="383" y="0" type="line"/>
      <point x="383" y="1174" type="line"/>
      <point x="111" y="1174" type="line"/>
      <point x="111" y="1081" type="line"/>
      <point x="252" y="1081" type="line"/>
      <point x="252" y="93" type="line"/>
      <point x="106" y="93" type="line"/>
    </contour>
  </outline>
</glyph>
<glyph name="lc_bowl_left" format="1">
  <advance width="1224"/>
  <outline>
    <contour>
      <point x="562" y="-22" type="curve" smooth="yes"/>
      <point x="681" y="-22"/>
      <point x="809" y="31"/>
      <point x="897" y="125" type="curve"/>
      <point x="897" y="214" type="line"/>
      <point x="813" y="129"/>
      <point x="692" y="77"/>
      <point x="588" y="77" type="curve" smooth="yes"/>
      <point x="415" y="77"/>
      <point x="282" y="194"/>
      <point x="282" y="393" type="curve" smooth="yes"/>
      <point x="282" y="604"/>
      <point x="402" y="727"/>
      <point x="568" y="727" type="curve" smooth="yes"/>
      <point x="676" y="727"/>
      <point x="800" y="676"/>
      <point x="894" y="592" type="curve"/>
      <point x="894" y="680" type="line"/>
      <point x="804" y="772"/>
      <point x="669" y="825"/>
      <point x="544" y="825" type="curve" smooth="yes"/>
      <point x="325" y="825"/>
      <point x="146" y="669"/>
      <point x="148" y="400" type="curve" smooth="yes"/>
      <point x="149" y="139"/>
      <point x="337" y="-22"/>
    </contour>
  </outline>
</glyph>
<glyph name="lc_bowl_right" format="1">
  <advance width="1224"/>
  <outline>
    <contour>
      <point x="617" y="-21" type="curve" smooth="yes"/>
      <point x="846" y="-21"/>
      <point x="1034" y="137"/>
      <point x="1036" y="408" type="curve" smooth="yes"/>
      <point x="1038" y="675"/>
      <point x="867" y="825"/>
      <point x="641" y="825" type="curve" smooth="yes"/>
      <point x="522" y="825"/>
      <point x="392" y="772"/>
      <point x="295" y="675" type="curve"/>
      <point x="306" y="581" type="line"/>
      <point x="396" y="675"/>
      <point x="510" y="726"/>
      <point x="608" y="726" type="curve" smooth="yes"/>
      <point x="780" y="726"/>
      <point x="902" y="606"/>
      <point x="902" y="401" type="curve" smooth="yes"/>
      <point x="902" y="192"/>
      <point x="773" y="76"/>
      <point x="596" y="76" type="curve" smooth="yes"/>
      <point x="494" y="76"/>
      <point x="383" y="128"/>
      <point x="305" y="220" type="curve"/>
      <point x="298" y="136" type="line"/>
      <point x="377" y="33"/>
      <point x="498" y="-21"/>
    </contour>
  </outline>
</glyph>
<glyph name="lc_xheight_curved_stem" format="1">
  <advance width="1195"/>
  <outline>
    <contour>
      <point x="713" y="0" type="line"/>
      <point x="1134" y="0" type="line"/>
      <point x="1134" y="93" type="line"/>
      <point x="985" y="93" type="line"/>
      <point x="985" y="562" type="line"/>
      <point x="985" y="731"/>
      <point x="872" y="826"/>
      <point x="726" y="826" type="curve" smooth="yes"/>
      <point x="605" y="826"/>
      <point x="472" y="757"/>
      <point x="352" y="668" type="curve"/>
      <point x="352" y="575" type="line"/>
      <point x="457" y="656"/>
      <point x="591" y="723"/>
      <point x="693" y="723" type="curve" smooth="yes"/>
      <point x="794" y="723"/>
      <point x="856" y="657"/>
      <point x="856" y="543" type="curve" smooth="yes"/>
      <point x="856" y="93" type="line"/>
      <point x="713" y="93" type="line"/>
    </contour>
  </outline>
</glyph>
<glyph name="uniFB00" format="1">
  <advance width="1344"/>
  <outline>
    <contour>
      <point x="1183" y="711" type="line"/>
      <point x="1183" y="804" type="line"/>
      <point x="977" y="804" type="line"/>
      <point x="977" y="988" type="line" smooth="yes"/>
      <point x="977" y="1080"/>
      <point x="1019" y="1121"/>
      <point x="1072" y="1121" type="curve" smooth="yes"/>
      <point x="1129" y="1121"/>
      <point x="1165" y="1089"/>
      <point x="1176" y="1009" type="curve"/>
      <point x="1275" y="1038" type="line"/>
      <point x="1264" y="1177"/>
      <point x="1163" y="1215"/>
      <point x="1068" y="1215" type="curve" smooth="yes"/>
      <point x="930" y="1215"/>
      <point x="847" y="1128"/>
      <point x="847" y="987" type="curve" smooth="yes"/>
      <point x="847" y="804" type="line"/>
      <point x="379" y="804" type="line"/>
      <point x="379" y="987" type="line" smooth="yes"/>
      <point x="379" y="1080"/>
      <point x="414" y="1122"/>
      <point x="476" y="1122" type="curve" smooth="yes"/>
      <point x="541" y="1122"/>
      <point x="566" y="1079"/>
      <point x="576" y="1009" type="curve"/>
      <point x="676" y="1038" type="line"/>
      <point x="667" y="1167"/>
      <point x="576" y="1215"/>
      <point x="471" y="1215" type="curve" smooth="yes"/>
      <point x="319" y="1215"/>
      <point x="247" y="1126"/>
      <point x="247" y="988" type="curve" smooth="yes"/>
      <point x="247" y="804" type="line"/>
      <point x="91" y="804" type="line"/>
      <point x="91" y="711" type="line"/>
      <point x="247" y="711" type="line"/>
      <point x="247" y="94" type="line"/>
      <point x="96" y="94" type="line"/>
      <point x="96" y="0" type="line"/>
      <point x="555" y="0" type="line"/>
      <point x="555" y="94" type="line"/>
      <point x="379" y="94" type="line"/>
      <point x="379" y="711" type="line"/>
      <point x="847" y="711" type="line"/>
      <point x="847" y="94" type="line"/>
      <point x="703" y="94" type="line"/>
      <point x="703" y="0" type="line"/>
      <point x="1165" y="0" type="line"/>
      <point x="1165" y="94" type="line"/>
      <point x="977" y="94" type="line"/>
      <point x="977" y="711" type="line"/>
    </contour>
  </outline>
</glyph>
